<?xml version="1.0" encoding="utf-8"?>
<!-- Generator: Adobe Illustrator 16.0.0, SVG Export Plug-In . SVG Version: 6.00 Build 0)  -->
<!DOCTYPE svg PUBLIC "-//W3C//DTD SVG 1.1//EN" "http://www.w3.org/Graphics/SVG/1.1/DTD/svg11.dtd">
<svg version="1.1" id="Layer_1" xmlns="http://www.w3.org/2000/svg" xmlns:xlink="http://www.w3.org/1999/xlink" x="0px" y="0px"
	 width="999.874px" height="603.925px" viewBox="0 0 999.874 603.925" enable-background="new 0 0 999.874 603.925"
	 xml:space="preserve">
<g>
	<defs>
		<rect id="SVGID_1_" width="999.874" height="603.925"/>
	</defs>
	<clipPath id="SVGID_2_">
		<use xlink:href="#SVGID_1_"  overflow="visible"/>
	</clipPath>
	<g clip-path="url(#SVGID_2_)" enable-background="new    ">
		<g>
			<defs>
				<rect id="SVGID_3_" x="33.519" y="7.327" width="933.824" height="565.383"/>
			</defs>
			<clipPath id="SVGID_4_">
				<use xlink:href="#SVGID_3_"  overflow="visible"/>
			</clipPath>
			<path clip-path="url(#SVGID_4_)" fill-rule="evenodd" clip-rule="evenodd" fill="#12ACEC" d="M403.519,323.438l41.262-3.405
				l-20.82-55.232L403.519,323.438z M259.575,310.182l25.058-2.066c6.719-0.555,12.372-1.601,16.957-3.142
				c4.584-1.539,8.086-3.804,10.504-6.797c2.417-2.991,3.627-6.936,3.627-11.831c0-3.826-0.975-7.121-2.921-9.879
				c-1.947-2.757-4.648-4.713-8.101-5.873c-3.266-1.11-9.703-1.27-19.312-0.477l-25.812,2.129V310.182z M309.485,79.899
				l24.452-2.214c4.631-0.42,7.746-3.704,7.746-8.171V58.309c0-3.596-2.399-7.007-7.746-6.522L309.485,54
				c-5.347,0.485-7.74,4.329-7.74,7.925v11.204C301.746,77.597,304.855,80.318,309.485,79.899 M536.895,230.214
				c-0.074-0.065-0.12-0.106-0.154-0.136C536.804,230.134,536.895,230.214,536.895,230.214 M329.151,99.033l-14.873,1.347
				c-5.348,0.483-7.746,4.341-7.746,7.941v112.665c0,4.463,3.115,7.188,7.746,6.768l14.873-1.346c4.625-0.419,7.74-3.706,7.74-8.171
				V105.573C336.892,101.974,334.498,98.549,329.151,99.033 M722.94,213.692c0.051,0.002,0.22,0.007,0.369,0.012
				C723.074,213.696,722.973,213.693,722.94,213.692 M537.241,230.508c1.352,1.271,2.732,2.945,4.146,5.024
				c1.412,2.081,2.874,4.251,4.381,6.51l53.79,76.893v-82.083c0-5.334,1.146-9.429,3.438-12.287c0.062-0.074,0.128-0.139,0.19-0.212
				l-66.291,5.861C537.01,230.314,537.131,230.404,537.241,230.508 M766.382,175.717c8.579,6.586,19.134,9.379,31.376,8.271
				c16.958-1.535,29.804-4.345,39.346-8.579c3.3-1.503,5.199-4.276,5.199-7.617v-9.633c0.011-6.299-5.243-7.773-8.962-6.505
				c-8.994,2.977-20.625,5.08-35.583,6.433c-4.088,0.37-7.589-0.742-10.413-3.341c-2.833-2.613-4.275-5.906-4.275-9.828V98.32
				c0-3.904,1.442-7.476,4.271-10.583c2.837-3.107,6.338-4.857,10.417-5.227c14.94-1.352,26.903-1.353,35.527-0.013
				c4.245,0.68,9.018-1.87,9.018-8.119v-9.636c0-3.167-1.695-5.563-4.982-6.698c-9.479-2.511-22.423-2.983-39.563-1.432
				c-12.231,1.108-22.88,5.896-31.632,14.22c-8.608,8.155-13.165,18.616-13.165,30.213v46.599
				C752.961,159.432,757.473,168.866,766.382,175.717 M372.02,222.527l14.622-1.323c4.631-0.42,7.747-3.707,7.747-8.172v-79.741
				c0-3.733,1.472-7.342,4.278-10.598c2.82-3.091,6.322-4.841,10.414-5.212l19.661-1.779c3.938-0.357,7.318,0.801,10.153,3.562
				c2.846,2.61,4.275,5.849,4.275,9.612v79.74c0,4.465,3.125,7.187,7.756,6.768l14.868-1.345c0.736-0.068,1.449-0.299,2.122-0.655
				c4.432-2.364,5.367-5.373,5.367-7.493V126.15c0-3.748,1.471-7.357,4.284-10.6c2.82-3.091,6.321-4.841,10.409-5.211l19.656-1.779
				c3.976-0.36,7.386,0.796,10.413,3.539c2.846,2.61,4.281,5.848,4.281,9.611v79.741c0,4.464,3.118,7.187,7.748,6.768l14.612-1.322
				c4.631-0.42,7.746-3.707,7.746-8.172v-79.74c0-11.873-4.535-21.247-13.415-27.822c-8.591-6.616-19.158-9.394-31.386-8.287
				l-19.656,1.779c-11.589,1.049-21.565,5.215-29.748,12.402c-8.144-5.709-18.045-8.075-29.486-7.04l-19.661,1.781
				c-12.119,1.096-22.742,5.776-31.637,13.991c-8.609,8.159-13.164,18.614-13.164,30.227v79.741
				C364.28,220.223,367.392,222.946,372.02,222.527 M716.183,328.987c2.637-0.47,5.37-1.323,8.195-2.561
				c2.826-1.236,5.275-2.85,7.35-4.842c9.357-8.68,14.036-22.682,14.036-42.012c0-13.617-2.06-23.646-6.17-30.085
				c-4.116-6.437-9.187-10.333-15.216-11.688c-6.028-1.352-13.314-1.678-21.854-0.973l-18.464,1.523v93.664l21.196-1.749
				C709.902,329.881,713.545,329.455,716.183,328.987 M142.536,235.831V156.09c0-11.597-4.554-21.232-13.168-27.844
				c-8.596-6.615-19.163-9.393-31.386-8.287c-15.316,1.386-26.856,3.392-34.487,6.033c-5.438,2.078-6.022,6.14-6.022,7.786v10.074
				c0,1.954,0.518,3.565,1.52,4.787c1.291,1.547,3.225,2.285,5.443,2.084c0.365-0.033,1.257-0.191,1.614-0.298
				c5.917-1.801,16.654-3.399,31.932-4.782c3.931-0.356,7.322,0.802,10.162,3.562c2.84,2.61,4.274,5.849,4.274,9.612v6.664
				l-34.092,3.085c-12.248,1.109-22.89,5.883-31.637,14.204c-8.739,8.294-13.17,18.385-13.17,30.001
				c0,11.77,4.517,21.221,13.425,28.073c8.582,6.584,19.139,9.378,31.382,8.269l56.711-5.132
				C139.454,243.58,142.536,240.221,142.536,235.831 M112.417,220.127l-34.092,3.087c-4.089,0.37-7.594-0.743-10.409-3.343
				c-2.85-2.61-4.284-5.905-4.284-9.827c0-3.765,1.434-7.266,4.284-10.37c2.815-3.092,6.32-4.843,10.409-5.213l34.092-3.086V220.127
				z M878.308,334.905c-8.289,4.45-18.118,7.144-29.484,8.082c-13.629,1.125-24.87-0.521-33.726-4.937
				c-6.281-3.185-11.384-7.705-15.309-13.563s-5.887-11.705-5.887-17.541c0-3.39,1.177-6.388,3.53-9
				c2.356-2.609,5.354-4.065,8.998-4.366c2.951-0.243,5.447,0.492,7.489,2.205c2.04,1.715,3.783,4.364,5.229,7.947
				c1.757,4.249,3.658,7.763,5.699,10.544c2.041,2.782,4.913,4.976,8.62,6.584c3.704,1.608,8.571,2.164,14.602,1.666
				c8.29-0.685,15.025-3.169,20.205-7.457c5.183-4.287,7.773-9.316,7.773-15.091c0-4.579-1.398-8.182-4.191-10.808
				c-2.796-2.624-6.407-4.508-10.834-5.648c-4.428-1.141-10.349-2.253-17.757-3.336c-9.925-1.502-18.229-3.532-24.918-6.086
				c-6.688-2.555-11.996-6.353-15.92-11.395c-3.927-5.042-5.889-11.547-5.889-19.517c0-7.593,2.072-14.51,6.218-20.752
				c4.145-6.24,10.142-11.27,17.991-15.087c2.201-1.069,4.521-2.01,6.937-2.848l-104.146,9.208
				c3.813,0.124,7.334,0.461,10.543,1.026c6.783,1.198,12.938,3.985,18.463,8.361c14.382,11.114,21.573,29.222,21.573,54.324
				c0,8.283-0.724,15.906-2.166,22.864c-1.445,6.96-3.674,13.31-6.688,19.049c-3.017,5.74-6.878,10.97-11.588,15.688
				c-3.707,3.634-7.757,6.634-12.153,9.006s-9.122,4.173-14.179,5.404c-5.056,1.233-10.754,2.111-17.097,2.636l-36.459,3.008
				c-5.086,0.42-8.918-0.032-11.49-1.358c-2.576-1.324-4.256-3.352-5.042-6.079c-0.785-2.727-1.177-6.318-1.177-10.775V235.67
				c0-6.025,1.351-10.496,4.052-13.418c1.308-1.415,3.014-2.539,5.103-3.386l-43.74,3.868c0.097,0.096,0.201,0.18,0.295,0.28
				c2.324,2.477,3.485,6.382,3.485,11.715v108.536c0,12.112-5.023,18.582-15.071,19.411c-2.513,0.208-4.774,0.032-6.783-0.522
				c-2.01-0.557-3.894-1.545-5.651-2.97c-1.761-1.423-3.392-3.123-4.899-5.103c-1.508-1.978-3.014-4.002-4.521-6.075l-52.472-76.06
				v80.861c0,5.271-1.225,9.358-3.674,12.257c-2.449,2.9-5.591,4.51-9.42,4.826c-3.958,0.326-7.13-0.777-9.515-3.311
				c-2.388-2.533-3.581-6.402-3.581-11.611V248.503c0-4.518,0.503-8.105,1.508-10.762c0.856-2.098,2.125-3.959,3.791-5.59
				l-77.512,6.854c1.034,0.854,1.948,1.82,2.738,2.898c1.601,2.191,2.951,4.574,4.05,7.15c1.099,2.578,2.497,6.023,4.192,10.339
				l36.081,86.072c2.826,6.545,4.239,11.355,4.239,14.43c0,3.2-1.336,6.244-4.004,9.133c-2.67,2.885-5.887,4.485-9.656,4.796
				c-2.199,0.182-4.083-0.056-5.652-0.71c-1.571-0.656-2.889-1.611-3.956-2.874c-1.07-1.261-2.214-3.237-3.439-5.93
				c-1.225-2.689-2.278-5.067-3.156-7.129l-6.594-16.775l-56.145,4.632l-6.595,18.242c-2.576,7.116-4.774,11.958-6.594,14.522
				c-1.823,2.564-4.805,4.021-8.95,4.362c-3.518,0.29-6.626-0.74-9.326-3.09c-2.701-2.35-4.05-5.157-4.05-8.42
				c0-1.883,0.313-3.854,0.941-5.915c0.627-2.059,1.664-4.938,3.109-8.633l35.327-92.531c1.003-2.655,2.213-5.845,3.626-9.571
				c1.414-3.725,2.92-6.845,4.522-9.363c0.754-1.185,1.624-2.275,2.6-3.277l-90.629,8.014c0.768,0.225,1.524,0.467,2.256,0.74
				c4.334,1.463,8.163,3.751,11.493,6.865c3.328,3.114,5.856,6.845,7.583,11.188c1.727,4.345,2.592,9.027,2.592,14.047
				c0,10.292-2.906,18.753-8.715,25.383c-5.81,6.63-14.617,11.718-26.424,15.265c4.961,2.226,9.703,5.727,14.225,10.498
				c4.522,4.773,8.556,9.916,12.105,15.427c3.547,5.514,6.312,10.527,8.29,15.037c1.979,4.513,2.967,7.648,2.967,9.403
				c0,1.821-0.581,3.673-1.742,5.558c-1.163,1.884-2.748,3.427-4.758,4.628c-2.01,1.201-4.333,1.911-6.97,2.129
				c-3.142,0.259-5.78-0.262-7.913-1.559c-2.137-1.299-3.974-3.016-5.512-5.147c-1.539-2.132-3.627-5.286-6.264-9.461
				l-11.211-17.714c-4.02-6.508-7.615-11.42-10.786-14.735c-3.172-3.316-6.392-5.497-9.656-6.546
				c-3.266-1.049-7.381-1.368-12.341-0.959l-9.797,0.81v44.336c0,5.836-1.288,10.242-3.862,13.215
				c-2.576,2.974-5.935,4.632-10.08,4.974c-4.461,0.368-7.913-0.791-10.363-3.476c-2.449-2.683-3.673-6.818-3.673-12.404V270.696
				c0-6.025,1.349-10.497,4.05-13.419c0.153-0.165,0.331-0.313,0.494-0.471l-55.291,4.889c1.327,0.479,2.608,1.029,3.833,1.67
				c3.264,1.676,6.153,3.902,8.667,6.674c2.51,2.775,4.427,5.911,5.746,9.41c1.319,3.5,1.978,7.259,1.978,11.274
				c0,13.806-6.91,24.48-20.725,32.021c18.149,4.276,27.225,14.761,27.225,31.453c0,7.719-1.978,14.833-5.935,21.34
				c-3.956,6.509-9.295,11.515-16.014,15.018c-4.209,2.105-9.044,3.744-14.508,4.915c-5.464,1.174-11.839,2.06-19.123,2.661
				l-42.204,3.482c-6.093,0.503-10.442-0.502-13.047-3.019c-0.252-0.242-0.488-0.506-0.715-0.781v5.465c0,0,0.523,1.007,1.538,1.273
				c34.614,9.067,641.879,168.158,641.879,168.158l160.875-253.355v-7.769c-0.875,2.098-1.901,4.147-3.122,6.135
				C892.895,324.729,886.599,330.456,878.308,334.905 M898.998,228.647c-1.341,0-1.388,0.955-1.388,0.955
				c0.001,0.117,0.01,0.235,0.01,0.352c0,3.326-1.177,6.42-3.533,9.281c-2.354,2.863-5.29,4.438-8.807,4.728
				c-3.203,0.264-5.638-0.335-7.302-1.799c-1.664-1.462-3.471-3.933-5.417-7.413c-2.513-5-5.526-8.815-9.043-11.444
				c-3.518-2.627-9.17-3.62-16.957-2.978c-7.223,0.597-13.047,2.663-17.476,6.196c-4.427,3.535-6.642,7.53-6.642,11.985
				c0,2.763,0.755,5.085,2.263,6.968c1.507,1.885,3.579,3.439,6.217,4.664c2.638,1.227,5.307,2.136,8.008,2.728
				c2.699,0.594,7.159,1.419,13.376,2.473c7.787,1.179,14.838,2.604,21.149,4.28c6.313,1.676,11.682,3.9,16.108,6.672
				c4.429,2.773,7.882,6.457,10.362,11.053c0.139,0.258,0.261,0.534,0.392,0.798v-48.544
				C900.319,229.602,900.145,228.647,898.998,228.647 M954.179,53.58c-8.595-6.615-19.156-9.393-31.386-8.286
				c-15.315,1.386-26.854,3.392-34.481,6.033c-5.441,2.077-6.026,6.14-6.026,7.786v10.074c0,1.954,0.518,3.565,1.525,4.786
				c1.291,1.547,3.22,2.285,5.438,2.084c0.367-0.033,1.258-0.19,1.617-0.298c5.908-1.799,16.65-3.399,31.928-4.781
				c3.938-0.357,7.322,0.801,10.158,3.562c2.851,2.609,4.281,5.849,4.281,9.611v6.663l-34.096,3.087
				c-12.252,1.109-22.889,5.883-31.642,14.205c-8.728,8.292-13.159,18.383-13.159,29.999c0,11.77,4.513,21.213,13.417,28.075
				c8.587,6.583,19.142,9.376,31.384,8.268l56.712-5.133c4.412-0.399,7.495-3.758,7.495-8.149V81.424
				C967.344,69.827,962.789,60.192,954.179,53.58 M937.232,145.462l-34.096,3.086c-4.088,0.37-7.587-0.743-10.409-3.342
				c-2.843-2.611-4.283-5.905-4.283-9.827c0-3.765,1.44-7.266,4.283-10.371c2.822-3.092,6.321-4.842,10.409-5.212l34.096-3.087
				V145.462z M900.543,311.052c-0.082,0.193-0.152,0.363-0.19,0.456C900.423,311.34,900.486,311.188,900.543,311.052
				 M723.539,213.711c-0.066-0.002-0.099-0.003-0.153-0.005C723.47,213.709,723.539,213.711,723.539,213.711 M177.901,240.1
				l14.622-1.324c4.63-0.419,7.736-3.706,7.736-8.171v-79.741c0-3.732,1.471-7.34,4.284-10.599c2.82-3.091,6.32-4.84,10.409-5.21
				l19.666-1.78c3.937-0.357,7.313,0.802,10.152,3.562c2.844,2.61,4.279,5.849,4.279,9.611v79.741c0,4.464,3.115,7.188,7.745,6.77
				l14.879-1.348c4.407-0.398,7.49-3.758,7.49-8.148v-79.742c0-11.871-4.54-21.245-13.417-27.821
				c-8.589-6.616-19.062-9.402-31.128-8.309l-19.666,1.779c-12.109,1.097-22.738,5.777-31.632,13.992
				c-8.61,8.159-13.164,18.614-13.164,30.228v79.74C170.157,237.795,173.271,240.519,177.901,240.1 M666.849,218.297
				c-0.56,0.175-1.101,0.361-1.614,0.569l1.614-0.142V218.297z M120.812,319.372l25.623-2.113
				c6.972-0.575,12.356-1.679,16.156-3.311c3.8-1.63,6.704-4.379,8.714-8.249c1.569-2.766,2.356-5.779,2.356-9.043
				c0-6.965-2.482-11.388-7.443-13.27c-4.961-1.881-12.529-2.402-22.703-1.563l-22.703,1.873V319.372z M171.871,339.917
				c-4.899-2.733-12.216-3.699-21.95-2.896l-29.109,2.402v40.288l30.051-2.479c18.903-1.561,28.356-9.149,28.356-22.768
				C179.219,347.5,176.769,342.652,171.871,339.917 M180.85,261.695c-0.059-0.021-0.09-0.032-0.136-0.049
				C180.789,261.674,180.85,261.695,180.85,261.695"/>
			<g clip-path="url(#SVGID_4_)">
				<path fill="#12ACEC" d="M709.399,82.713l46.514-37.027c2.11-1.679,0.301-4.025-2.253-2.93l-56.73,24.338
					C704.888,70.021,710.852,80.942,709.399,82.713"/>
				<path fill="#12ACEC" d="M721.063,132.881c-0.892-13.444-11.213-28.364-10.337-43.453c0.179-3.088-0.063-5.813-0.624-8.218
					c-0.162-0.701-0.352-1.377-0.565-2.025c-1.227-3.7-3.244-6.55-5.594-8.742c-7.172-6.7-17.401-7.281-17.298-7.294
					c2.854-0.382,6.495-0.225,8.277-0.109c0.604,0.04,1.178-0.345,1.321-0.878c1.799-6.749,5.325-11.551,7.596-14.105
					c0.703-0.79-0.023-1.85-1.106-1.595c-6.347,1.498-13.058,5.556-16.686,7.985c-0.951,0.638-2.161-0.121-1.75-1.093
					c1.499-3.549,4.391-9.032,6-12.026c0.451-0.84-0.402-1.67-1.381-1.343c-12.313,4.117-23.299,12.38-30.189,18.407
					c-1.086,0.951-2.634-0.268-1.671-1.316c0.048-0.051,0.095-0.103,0.145-0.154c0.71-0.765,0.053-1.822-1.015-1.633
					c-10.325,1.838-43.402,9.431-63.148,33.742c-0.759,0.932,0.351,2.02,1.462,1.435c5.303-2.787,14.598-7.349,23.01-9.821
					c1.372-0.404,2.063,1.249,0.782,1.876c-11.765,5.762-32.836,18.367-38.341,36.787c-6.104,20.412-2.712,40.309,14.083,53.307
					c18.508,14.327,42.13,16.844,59.479,23.986c0.875,0.361,1.917-0.392,1.713-1.238c-0.928-3.855-3.932-12.477-13.362-22.291
					c-0.588-0.61-0.095-1.619,0.851-1.729c3.345-0.396,10.875,2.071,20.514,25.976c0.258,0.641,1.172,0.822,1.81,0.356
					c7.432-5.451,43.068-34.161,9.563-61.2c-4.166-3.362-22.185-11.223-21.25-28.518c0.058-1.077,1.7-1.49,2.228-0.561
					c2.316,4.104,7.713,10.816,19.789,16.312c7.065,3.217,10.592,6.051,14.847,16.017
					C693.694,147.875,722.068,148.028,721.063,132.881"/>
			</g>
			<path clip-path="url(#SVGID_4_)" fill="#FFFFFF" d="M693.947,96.298c-1.063,5.287-6.004,8.753-11.032,7.741
				c-5.029-1.012-8.242-6.12-7.179-11.405s6.002-8.752,11.032-7.74C691.797,85.906,695.011,91.014,693.947,96.298"/>
		</g>
	</g>
</g>
</svg>
