<svg width="492" height="127" viewBox="0 0 492 127" fill="none" xmlns="http://www.w3.org/2000/svg">
<path d="M14.2393 48.9944L0 63.2337L14.2394 77.473L28.4787 63.2338L14.2393 48.9944Z" fill="#F0B90B"/>
<path d="M63.197 28.5535L87.6426 52.9993L101.869 38.7726L63.197 0L24.5244 38.7726L38.7513 52.9993L63.197 28.5535Z" fill="#F0B90B"/>
<path d="M112.018 48.9864L97.7788 63.2258L112.018 77.4652L126.258 63.2258L112.018 48.9864Z" fill="#F0B90B"/>
<path d="M63.197 97.7823L38.7513 73.3366L24.5244 87.6634L63.197 126.336L101.869 87.6634L87.6426 73.3366L63.197 97.7823Z" fill="#F0B90B"/>
<path d="M63.1289 48.9903L48.8894 63.2297L63.1288 77.4691L77.3682 63.2297L63.1289 48.9903Z" fill="#F0B90B"/>
<path d="M178.112 63.2192H154.868V14.3276H177.611C187.629 14.3276 193.741 19.337 193.741 26.9513V27.0514C193.741 32.5618 190.835 35.6676 187.329 37.5711C192.939 39.7753 196.446 42.9813 196.446 49.5937V49.6938C196.446 58.7107 189.232 63.2192 178.112 63.2192ZM183.021 28.7546C183.021 25.5486 180.516 23.7452 176.008 23.7452H165.388V34.0646H175.306C180.015 34.0646 183.021 32.5618 183.021 28.8548V28.7546ZM185.726 48.2912C185.726 44.985 183.321 42.9813 177.811 42.9813H165.388V53.7014H178.212C182.921 53.7014 185.826 51.9982 185.826 48.3914V48.2912H185.726Z" fill="#F0B90B"/>
<path d="M208.268 63.2192V14.3276H218.988V63.2192H208.268Z" fill="#F0B90B"/>
<path d="M267.68 63.2192L244.035 32.161V63.2192H233.415V14.3276H243.334L266.277 44.4841V14.3276H276.897V63.2192H267.68Z" fill="#F0B90B"/>
<path d="M325.187 63.2188L320.679 52.2983H300.04L295.531 63.2188H284.611L305.55 13.9265H315.469L336.408 63.2188H325.187ZM310.359 26.8507L303.847 42.6803H316.871L310.359 26.8507Z" fill="#F0B90B"/>
<path d="M378.587 63.2192L354.943 32.161V63.2192H344.323V14.3276H354.242L377.184 44.4841V14.3276H387.804V63.2192H378.587Z" fill="#F0B90B"/>
<path d="M423.17 64.0199C408.743 64.0199 398.124 52.8991 398.124 38.8728V38.7726C398.124 24.8465 408.643 13.5253 423.671 13.5253C432.889 13.5253 438.399 16.6311 442.907 21.0394L436.095 28.9542C432.287 25.5479 428.48 23.4439 423.571 23.4439C415.356 23.4439 409.344 30.2567 409.344 38.6724V38.7726C409.344 47.1884 415.155 54.1013 423.571 54.1013C429.182 54.1013 432.588 51.8972 436.395 48.3906L443.208 55.3036C438.199 60.7137 432.688 64.0199 423.17 64.0199Z" fill="#F0B90B"/>
<path d="M451.924 63.2192V14.3276H488.794V23.9456H462.644V33.8642H485.688V43.4822H462.644V53.8015H489.194V63.4195H451.924V63.2192Z" fill="#F0B90B"/>
<path d="M358.851 77.4458H364.962V106.5H383.196V112.011H358.951V77.4458H358.851Z" fill="#F0B90B"/>
<path d="M424.474 112.01H418.061L414.555 103.694H398.224L394.618 112.01H388.406L403.635 77.1445H409.245L424.474 112.01ZM406.34 84.4582L400.429 98.2841H412.351L406.34 84.4582Z" fill="#F0B90B"/>
<path d="M457.836 86.2623C457.836 90.4702 455.432 92.6743 452.927 94.077C456.934 95.4796 459.84 97.7839 459.84 102.493C459.84 108.704 454.73 112.011 447.016 112.011H430.986V77.4458H446.515C453.428 77.4458 457.836 80.8522 457.836 86.2623ZM451.825 87.2642C451.825 84.459 449.621 82.8559 445.713 82.8559H436.997V92.0732H445.312C449.12 92.0732 451.825 90.4702 451.825 87.2642ZM453.728 101.892C453.728 98.886 451.424 97.1828 446.615 97.1828H436.997V106.701H447.116C451.224 106.701 453.728 104.997 453.728 101.892Z" fill="#F0B90B"/>
<path d="M480.879 91.9726C488.193 93.776 492 96.3809 492 102.192C492 108.704 486.891 112.611 479.677 112.611C474.367 112.611 469.358 110.808 465.25 107.101L468.957 102.793C472.263 105.698 475.569 107.301 479.877 107.301C483.685 107.301 485.989 105.598 485.989 102.893C485.989 100.388 484.586 98.9858 478.174 97.5831C470.76 95.7798 466.653 93.6758 466.653 87.1636C466.653 81.1524 471.562 77.0447 478.475 77.0447C483.484 77.0447 487.492 78.5475 490.998 81.3527L487.692 85.9614C484.586 83.6571 481.481 82.3546 478.275 82.3546C474.668 82.3546 472.664 84.158 472.664 86.4623C472.664 89.1674 474.267 90.3696 480.879 91.9726Z" fill="#F0B90B"/>
<path d="M344.423 91.8713H154.868V97.6822H344.423V91.8713Z" fill="#F0B90B"/>
</svg>
