<svg width="204" height="56" fill="none" xmlns="http://www.w3.org/2000/svg">
    <path d="M0 28c0-7.445 0-11.168.979-14.18A20 20 0 0 1 13.819.979C16.833 0 20.556 0 28 0c7.445 0 11.168 0 14.18.979a20 20 0 0 1 12.841 12.84C56 16.833 56 20.556 56 28c0 7.445 0 11.168-.979 14.18a20 20 0 0 1-12.84 12.841C39.167 56 35.444 56 28 56c-7.445 0-11.168 0-14.18-.979A20 20 0 0 1 .979 42.181C0 39.167 0 35.444 0 28Z" fill="#004269"/>
    <path d="M37.524 42.23a.05.05 0 0 0 .067.009l.408-.293c4.334-3.113 7.16-8.2 7.16-13.946 0-9.476-7.682-17.158-17.159-17.158-9.476 0-17.158 7.682-17.158 17.158a17.12 17.12 0 0 0 6.035 13.065 1.723 1.723 0 0 0 .229.192c.246.202.497.398.755.586l.408.3a.05.05 0 0 0 .068-.008l.33-.384.518-.605a1.69 1.69 0 0 0 .205-.213l.536-.663h.001l.547-.651a.05.05 0 0 0 .011-.038v-.001l1.263-1.56a.05.05 0 0 0-.011-.073l-2.745-1.83a.05.05 0 0 0-.067.01l-1.013 1.25A13.723 13.723 0 0 1 14.227 28c0-7.607 6.167-13.773 13.773-13.773 7.607 0 13.773 6.166 13.773 13.773 0 3.685-1.446 7.032-3.804 9.504l-1.62-2.001a.594.594 0 0 0-.08-.128l-.123-.148a10.893 10.893 0 0 0 1.912-3.045l.235-.566a.05.05 0 0 0-.032-.067l-3.166-.916a.05.05 0 0 0-.06.027l-.195.432a7.508 7.508 0 0 1-.876 1.464l-4.759-5.879a1.693 1.693 0 0 0-2.631 0l-4.644 5.737a7.505 7.505 0 1 1 12.913-7.498l.195.43a.05.05 0 0 0 .059.027l3.173-.895a.05.05 0 0 0 .033-.067l-.235-.57A10.893 10.893 0 0 0 28 17.111c-6.014 0-10.89 4.875-10.89 10.889 0 3.31 1.478 6.276 3.808 8.273.302.258 1.178.913 1.87 1.29A10.843 10.843 0 0 0 28 38.89c1.33 0 2.226-.06 3.471-.538l.68-.261a.05.05 0 0 0 .021-.077l-2.088-2.76a.05.05 0 0 0-.051-.02l-.346.08a7.526 7.526 0 0 1-1.687.19 7.47 7.47 0 0 1-3.511-.87l3.4-4.201c.768.952 1.531 1.905 2.293 2.857h0c2.304 2.878 4.6 5.746 7.015 8.56l.327.38Zm-9.673-13.649-4.395 5.43a7.662 7.662 0 0 1-.754-.65l4.8-5.932a.497.497 0 0 1 .774 0l4.785 5.912a.59.59 0 0 0 .083.131l1.419 1.716a.05.05 0 0 0 .01.02l3.258 4.026a.05.05 0 0 0 .074.005l.43-.41A14.927 14.927 0 0 0 42.968 28c0-8.267-6.701-14.968-14.968-14.968-8.266 0-14.968 6.701-14.968 14.968 0 4.194 1.726 7.986 4.504 10.703l.43.42a.05.05 0 0 0 .074-.004l1.157-1.43.832.555a124.06 124.06 0 0 1-1.902 2.3c-3.814-3.006-6.09-7.683-6.09-12.544 0-8.816 7.147-15.963 15.963-15.963 8.817 0 15.964 7.147 15.964 15.963 0 5.148-2.437 9.728-6.222 12.648-2.269-2.66-4.431-5.362-6.614-8.089-.918-1.146-1.84-2.298-2.774-3.452l-.426-.526a.05.05 0 0 0-.077 0Zm6.16 11.762a.05.05 0 0 0-.06-.012l-.385.194c-1.849.932-3.323 1.248-5.566 1.248-2.331 0-4.235-.28-6.095-1.245l-.37-.192a.05.05 0 0 0-.06.01l-2.198 2.38a.05.05 0 0 0 .013.077l.625.335A17.085 17.085 0 0 0 28 45.158c2.852 0 5.237-.547 7.62-1.793l.608-.317a.05.05 0 0 0 .015-.077l-2.231-2.628Zm-6.01 2.625c2.235 0 3.829-.301 5.679-1.17l.713.84c-1.977.915-3.99 1.325-6.393 1.325-2.443 0-4.758-.548-6.827-1.529l.593-.642c1.963.92 3.962 1.176 6.234 1.176Z" fill="#FAAF3B" stroke="#FBB13B" stroke-width=".1" stroke-linecap="round" stroke-linejoin="round"/>
    <path d="M71.166 42.33c0-2.366 1.896-4.312 4.267-4.312 1.316 0 2.422.526 3.16 1.42l-.79.683a3.084 3.084 0 0 0-2.37-1.104c-1.791 0-3.161 1.473-3.161 3.313 0 1.788 1.422 3.314 3.16 3.314.949 0 1.791-.421 2.37-1.105l.79.684c-.736.894-1.895 1.42-3.16 1.42-2.37 0-4.266-1.894-4.266-4.313Z" fill="#004269"/>
    <path fill-rule="evenodd" clip-rule="evenodd" d="m78.871 39.461-1.09.944-.13-.154a2.884 2.884 0 0 0-2.218-1.034c-1.67 0-2.961 1.373-2.961 3.113 0 1.688 1.343 3.114 2.96 3.114.887 0 1.675-.393 2.218-1.034l.13-.154 1.091.943-.124.151c-.778.944-1.996 1.493-3.314 1.493-2.483 0-4.467-1.984-4.467-4.513 0-2.474 1.983-4.512 4.467-4.512 1.372 0 2.536.55 3.314 1.492l.124.151Zm-.41 5.912c-.74.803-1.837 1.27-3.028 1.27-2.37 0-4.267-1.894-4.267-4.313 0-2.366 1.896-4.312 4.267-4.312 1.24 0 2.294.467 3.029 1.269l.011.013c.041.045.081.09.12.138l-.79.683a3.082 3.082 0 0 0-2.37-1.104c-1.791 0-3.161 1.473-3.161 3.313 0 1.788 1.422 3.314 3.16 3.314a3.082 3.082 0 0 0 2.37-1.105l.79.684a3.707 3.707 0 0 1-.13.15Z" fill="#004269"/>
    <path d="M83.86 43.382h-1.106v3.156h-1.106v-8.415h3.16c1.844 0 2.529 1.315 2.529 2.63 0 1.21-.632 2.419-2.213 2.63l2.265 3.207h-1.316l-2.213-3.208Zm.685-1.052c1.212 0 1.738-.63 1.738-1.577s-.526-1.578-1.422-1.578h-2.107v3.155h1.791Z" fill="#004269"/>
    <path fill-rule="evenodd" clip-rule="evenodd" d="m86.073 46.59-2.213-3.208h-1.106v3.156h-1.106v-8.415h3.16c1.844 0 2.529 1.315 2.529 2.63 0 1.152-.574 2.304-1.994 2.593a3.45 3.45 0 0 1-.219.036l2.265 3.208h-1.316Zm-.604-3.067c.677-.157 1.176-.505 1.515-.962.386-.521.553-1.17.553-1.808 0-.689-.18-1.396-.618-1.934-.444-.546-1.136-.896-2.11-.896h-3.361v8.815h1.506v-3.156h.801l2.213 3.208h1.807l-2.306-3.267Zm-2.515-1.393h1.591c.573 0 .95-.148 1.184-.377.233-.227.354-.563.354-1 0-.438-.121-.78-.325-1.012-.201-.228-.5-.366-.897-.366h-1.907v2.755Zm1.591.2c1.212 0 1.738-.63 1.738-1.577s-.526-1.578-1.422-1.578h-2.107v3.155h1.791Z" fill="#004269"/>
    <path d="m96.713 38.123-3.266 4.523v3.892h-1.106v-3.892l-3.213-4.523h1.317l2.423 3.471 2.475-3.47h1.37Z" fill="#004269"/>
    <path fill-rule="evenodd" clip-rule="evenodd" d="m97.104 37.923-3.457 4.788v4.027h-1.506V42.71l-3.4-4.787h1.808l2.32 3.324 2.371-3.324h1.864Zm-4.236 3.671-2.423-3.47h-1.317l3.213 4.522v3.892h1.106v-3.892l3.266-4.523h-1.37l-2.475 3.471Z" fill="#004269"/>
    <path d="M105.088 40.753c0 1.315-.737 2.63-2.528 2.63h-2.318v3.155h-1.106v-8.415h3.371c1.844 0 2.581 1.315 2.581 2.63Zm-1.106 0c0-.79-.422-1.578-1.422-1.578h-2.213v3.208h2.16c1.001-.053 1.475-.841 1.475-1.63Z" fill="#004269"/>
    <path fill-rule="evenodd" clip-rule="evenodd" d="M100.442 46.738h-1.506v-8.815h3.571c.974 0 1.678.35 2.135.893.452.538.646 1.245.646 1.937s-.194 1.398-.639 1.935c-.449.543-1.14.894-2.089.894h-2.118v3.156Zm-.2-3.356h2.318c1.791 0 2.528-1.314 2.528-2.63 0-1.314-.737-2.629-2.581-2.629h-3.371v8.415h1.106v-3.156Zm3.246-3.591c-.191-.245-.487-.416-.928-.416h-2.013v2.808h1.955c.442-.025.756-.208.962-.465.21-.26.318-.609.318-.965 0-.362-.097-.71-.294-.962Zm-.981 2.592h-2.16v-3.208h2.213c1 0 1.422.789 1.422 1.578s-.474 1.578-1.475 1.63Z" fill="#004269"/>
    <path d="M113.253 39.122h-2.581v7.415h-1.107v-7.415h-2.581V38.07h6.269v1.052Z" fill="#004269"/>
    <path fill-rule="evenodd" clip-rule="evenodd" d="M113.453 39.322h-2.581v7.415h-1.507v-7.415h-2.581V37.87h6.669v1.452Zm-3.888-.2v7.415h1.107v-7.415h2.581V38.07h-6.269v1.052h2.581Z" fill="#004269"/>
    <path d="M116.044 42.33c0-2.419 1.844-4.312 4.267-4.312s4.266 1.946 4.266 4.312c0 2.367-1.896 4.313-4.266 4.313-2.371 0-4.267-1.894-4.267-4.313Zm7.427 0c0-1.788-1.369-3.313-3.16-3.313-1.791 0-3.161 1.473-3.161 3.313 0 1.788 1.37 3.314 3.161 3.314s3.16-1.526 3.16-3.314Z" fill="#004269"/>
    <path fill-rule="evenodd" clip-rule="evenodd" d="M115.844 42.33c0-2.526 1.93-4.512 4.467-4.512 2.538 0 4.466 2.04 4.466 4.512 0 2.474-1.983 4.513-4.466 4.513-2.482 0-4.467-1.984-4.467-4.513Zm7.427 0c0-1.69-1.292-3.113-2.96-3.113-1.671 0-2.961 1.373-2.961 3.113 0 1.69 1.292 3.114 2.961 3.114 1.668 0 2.96-1.424 2.96-3.114Zm-2.96-4.312c-2.423 0-4.267 1.893-4.267 4.312 0 2.42 1.896 4.313 4.267 4.313 2.37 0 4.266-1.946 4.266-4.313 0-2.366-1.843-4.312-4.266-4.312Zm0 1c1.791 0 3.16 1.524 3.16 3.312 0 1.788-1.369 3.314-3.16 3.314-1.791 0-3.161-1.526-3.161-3.314 0-1.84 1.37-3.313 3.161-3.313Z" fill="#004269"/>
    <path d="m143.277 38.123-2.792 8.31h-1.001l-1.475-5.26-1.475 5.26h-.948l-2.791-8.31h1.158l2.107 6.574 1.528-5.417h.843l1.58 5.364 2.107-6.52h1.159Z" fill="#004269"/>
    <path fill-rule="evenodd" clip-rule="evenodd" d="m143.555 37.923-2.926 8.71h-1.296l-1.324-4.719-1.323 4.718h-1.244l-2.926-8.709h1.583l1.949 6.08 1.388-4.923h1.144l1.44 4.887 1.952-6.044h1.583Zm-3.544 6.721-1.58-5.364h-.843l-1.528 5.417-2.107-6.574h-1.158l2.791 8.31h.948l1.475-5.26 1.475 5.26h1.001l2.792-8.31h-1.159l-2.107 6.521Z" fill="#004269"/>
    <path d="M150.862 45.433v1h-5.057v-8.31h4.899v1h-3.793v2.734h3.319v1h-3.319v2.576h3.951Z" fill="#004269"/>
    <path fill-rule="evenodd" clip-rule="evenodd" d="M151.062 45.233v1.4h-5.457v-8.71h5.299v1.4h-3.793v2.334h3.319v1.4h-3.319v2.176h3.951Zm-4.151-2.377h3.319v-.999h-3.319v-2.735h3.793v-.999h-4.899v8.31h5.057v-1h-3.951v-2.577Z" fill="#004269"/>
    <path d="M153.285 44.066h1.106c.052.736.737 1.472 1.843 1.472 1.106 0 1.686-.683 1.686-1.42 0-.788-.738-1.157-1.422-1.367l-1.054-.263c-1.738-.42-2.054-1.472-2.054-2.104 0-1.42 1.264-2.366 2.739-2.366 1.475 0 2.634.947 2.634 2.419h-1.106c0-.841-.685-1.42-1.581-1.42-.842 0-1.58.526-1.58 1.315 0 .263.105.894 1.212 1.157l1.106.263c1.422.368 2.265 1.104 2.265 2.314 0 1.262-1.054 2.471-2.792 2.471-1.844 0-3.002-1.21-3.002-2.471Z" fill="#004269"/>
    <path fill-rule="evenodd" clip-rule="evenodd" d="M153.085 43.866h1.492l.013.185c.045.62.631 1.287 1.644 1.287.511 0 .881-.157 1.122-.38.241-.224.364-.525.364-.84 0-.32-.146-.556-.38-.744-.239-.193-.563-.328-.896-.43l-1.047-.262c-.904-.219-1.462-.608-1.792-1.047a2.075 2.075 0 0 1-.415-1.25c0-1.565 1.391-2.567 2.939-2.567 1.562 0 2.834 1.014 2.834 2.619v.2h-1.506v-.2c0-.708-.571-1.22-1.381-1.22-.777 0-1.38.477-1.38 1.115 0 .105.021.282.152.46.13.176.387.379.906.502l1.11.264c.73.19 1.333.478 1.756.892.428.42.659.959.659 1.616 0 1.38-1.152 2.671-2.992 2.671-1.93 0-3.202-1.276-3.202-2.671v-.2Zm3.413-1.115c.684.21 1.422.579 1.422 1.367 0 .737-.58 1.42-1.686 1.42-1.106 0-1.791-.736-1.843-1.472h-1.106c0 .067.003.133.009.2.115 1.187 1.247 2.272 2.993 2.272 1.738 0 2.792-1.21 2.792-2.472 0-1.21-.843-1.946-2.265-2.314l-1.106-.263c-1.107-.263-1.212-.894-1.212-1.157 0-.789.738-1.315 1.58-1.315.896 0 1.581.579 1.581 1.42h1.106c0-.068-.003-.134-.008-.2-.1-1.358-1.219-2.22-2.626-2.22-1.475 0-2.739.947-2.739 2.367 0 .632.316 1.683 2.054 2.104l1.054.263Z" fill="#004269"/>
    <path d="M166.875 45.433v1h-5.005v-8.31h4.899v1h-3.792v2.734h3.318v1h-3.318v2.576h3.898Z" fill="#004269"/>
    <path fill-rule="evenodd" clip-rule="evenodd" d="M167.075 45.233v1.4h-5.405v-8.71h5.299v1.4h-3.792v2.334h3.318v1.4h-3.318v2.176h3.898Zm-4.098-2.377h3.318v-.999h-3.318v-2.735h3.792v-.999h-4.899v8.31h5.005v-1h-3.898v-2.577Z" fill="#004269"/>
    <path d="M174.302 44.276h-3.582l-.79 2.104h-1.159l3.16-8.31h1.159l3.161 8.31h-1.159l-.79-2.104Zm-.369-.947-1.422-3.734-1.423 3.734h2.845Z" fill="#004269"/>
    <path fill-rule="evenodd" clip-rule="evenodd" d="m175.092 46.38-.79-2.104h-3.582l-.79 2.104h-1.159l3.16-8.31h1.159l3.161 8.31h-1.159Zm-4.234-1.904-.79 2.104h-1.587l3.312-8.71h1.435l3.313 8.71h-1.588l-.79-2.104h-3.305Zm1.653-4.88-1.423 3.733h2.845l-1.422-3.734Zm0 .561-1.132 2.972h2.264l-1.132-2.972Z" fill="#004269"/>
    <path d="M180.78 43.277h-1.106v3.155h-1.106v-8.309h3.108c1.791 0 2.528 1.315 2.528 2.577 0 1.21-.579 2.42-2.159 2.577l2.212 3.155h-1.317l-2.16-3.155Zm-1.053-1h1.738c1.212 0 1.686-.63 1.686-1.577s-.527-1.578-1.37-1.578h-2.054v3.156Z" fill="#004269"/>
    <path fill-rule="evenodd" clip-rule="evenodd" d="m182.94 46.432-2.16-3.155h-1.106v3.155h-1.106v-8.309h3.108c1.791 0 2.528 1.315 2.528 2.577 0 1.151-.524 2.302-1.936 2.547a3.19 3.19 0 0 1-.223.03l2.212 3.155h-1.317Zm-.546-3.006c.671-.137 1.158-.474 1.485-.926.374-.516.525-1.166.525-1.8 0-.667-.194-1.36-.639-1.89-.45-.536-1.14-.887-2.089-.887h-3.308v8.71h1.506v-3.156h.801l2.16 3.156h1.806l-2.247-3.207Zm-2.467-1.348h1.538c.573 0 .934-.149 1.154-.374.221-.226.332-.561.332-1.004 0-.437-.122-.782-.321-1.013-.196-.229-.481-.365-.849-.365h-1.854v2.756Zm1.538.2c1.212 0 1.686-.631 1.686-1.578 0-.947-.527-1.578-1.37-1.578h-2.054v3.156h1.738Z" fill="#004269"/>
    <path d="M186.68 42.278c0-2.367 1.844-4.26 4.214-4.26 1.264 0 2.37.526 3.108 1.42l-.79.683c-.58-.63-1.423-1.051-2.318-1.051-1.738 0-3.108 1.472-3.108 3.26 0 1.788 1.37 3.26 3.108 3.26.948 0 1.791-.42 2.318-1.05l.79.683a4.137 4.137 0 0 1-3.108 1.42c-2.318-.105-4.214-1.999-4.214-4.365Z" fill="#004269"/>
    <path fill-rule="evenodd" clip-rule="evenodd" d="m194.28 39.461-1.084.939-.132-.143c-.546-.595-1.337-.987-2.17-.987-1.617 0-2.908 1.372-2.908 3.06 0 1.689 1.291 3.06 2.908 3.06.889 0 1.676-.394 2.164-.98l.131-.155 1.096.948-.133.152a4.335 4.335 0 0 1-3.258 1.488h-.009c-2.421-.11-4.405-2.088-4.405-4.565 0-2.474 1.93-4.46 4.414-4.46 1.322 0 2.485.55 3.262 1.492l.124.151Zm-.414 5.909a4.127 4.127 0 0 1-2.972 1.273c-2.318-.105-4.214-1.999-4.214-4.365 0-2.367 1.844-4.26 4.214-4.26 1.191 0 2.242.467 2.977 1.269l.011.013c.041.044.081.09.12.138l-.79.683c-.58-.63-1.423-1.051-2.318-1.051-1.738 0-3.108 1.472-3.108 3.26 0 1.788 1.37 3.26 3.108 3.26a3.032 3.032 0 0 0 2.318-1.05l.79.683c-.044.05-.089.099-.136.147Z" fill="#004269"/>
    <path d="M203.062 38.123v8.31h-1.106v-3.63H197.9v3.63h-1.107v-8.31h1.107v3.681h4.056v-3.68h1.106Z" fill="#004269"/>
    <path fill-rule="evenodd" clip-rule="evenodd" d="M203.262 37.923v8.71h-1.506v-3.63H198.1v3.63h-1.507v-8.71h1.507v3.681h3.656v-3.68h1.506Zm-1.306 3.881H197.9v-3.68h-1.107v8.308h1.107v-3.628h4.056v3.628h1.106v-8.309h-1.106v3.681Z" fill="#004269"/>
    <path d="M76.117 14.09s-1.685 2.05-3.74 3.838l-1.211-1.051c2.686-2.367 4.635-4.891 5.847-7.52l1.685.578c-.316.578-1.633 2.63-1.633 2.63h16.856v1.524H76.117Zm-.737 1.42h16.592v5.153h2.845v1.473h-2.845v1.42c0 .894 0 1.63-.053 2.314h2.107v1.472h-2.16c-.105 2.524-1.369 3.787-3.844 3.787h-3.214l-.368-1.473h3.213c1.37 0 2.16-.789 2.37-2.314h-14.17l-.157 1.315h-1.844l.738-6.574h-2.687v-1.42h2.845l.58-4.996.052-.158Zm14.749 6.678H76.486l-.474 3.787h14.064v-3.787h.053Zm-13.485-1.472h13.484v-3.682H77.066l-.421 3.682Zm7.848 4.996a38.006 38.006 0 0 0-3.055-2.051l.948-1.21c1.212.684 2.265 1.368 3.16 2.051l-1.053 1.21Zm.106-5.26a37.972 37.972 0 0 0-3.055-2.05l.948-1.21c1.211.684 2.265 1.368 3.16 2.051l-1.053 1.21Z" fill="#004269"/>
    <path fill-rule="evenodd" clip-rule="evenodd" d="m72.377 18.194-1.515-1.316.172-.151c2.67-2.352 4.6-4.855 5.797-7.454l.076-.165 2.08.715-.113.208c-.162.296-.574.96-.941 1.542l-.488.77-.014.021h16.69v1.925h-17.91l-.017.02-.22.26a38.76 38.76 0 0 1-.659.74h16.857v5.154h2.844v1.873h-2.844v1.225c0 .798 0 1.478-.038 2.109h2.092v1.872h-2.17c-.08 1.2-.43 2.137-1.082 2.782-.689.68-1.682 1.005-2.952 1.005h-3.37l-.469-1.873h3.47c.644 0 1.13-.184 1.48-.528.315-.31.539-.767.655-1.386H76.031l-.158 1.315h-2.245l.738-6.574h-2.663v-1.82h2.867l.56-4.84.06-.176-.025.027a34.652 34.652 0 0 1-2.656 2.605l-.132.114Zm2.37 2.47h-2.844v1.42h2.687l-.738 6.573h1.844l.158-1.315h14.17c-.01.068-.02.135-.032.2-.251 1.394-1.03 2.114-2.34 2.114H84.44l.368 1.473h3.214c2.475 0 3.74-1.263 3.845-3.787h2.16V25.87h-2.108l.014-.2c.04-.628.04-1.307.04-2.114v-1.42h2.844v-1.473h-2.845V15.51H75.38l-.053.158-.58 4.996Zm1.37-6.575h17.804v-1.525H77.065l.128-.2a91.686 91.686 0 0 0 1.405-2.252l.1-.177-1.685-.579c-1.189 2.58-3.088 5.059-5.696 7.387l-.151.134 1.211 1.052c2.055-1.789 3.74-3.84 3.74-3.84Zm8.586 11.686 1.134-1.302-.17-.13a27.2 27.2 0 0 0-2.988-1.955h7.197v3.387h-5.173Zm-8.691.2.474-3.787h13.59v3.787H76.012Zm.65-3.587-.424 3.387h8.004c-.81-.6-1.764-1.248-2.909-1.943l-.192-.117 1.04-1.327h-5.519Zm8.146-1.872 1.134-1.302-.17-.13a26.766 26.766 0 0 0-2.805-1.85h6.962v3.282h-5.12Zm-8.164.2.421-3.682H90.13v3.682H76.644Zm5.56-3.482h-4.96l-.376 3.282h7.48c-.81-.6-1.765-1.248-2.91-1.943l-.192-.117.958-1.222Zm.361 0a27.814 27.814 0 0 1 3.086 2.01l-1.053 1.209a37.623 37.623 0 0 0-3.055-2.051l.948-1.21.074.042Zm1.927 8.478a37.623 37.623 0 0 0-3.055-2.051l.948-1.21a27.963 27.963 0 0 1 3.16 2.051l-1.053 1.21Z" fill="#004269"/>
    <path d="M126.421 29.814h-14.327v1.21h-1.897V11.038h18.226V30.97h-1.949l-.053-1.157Zm0-17.303h-14.327v6.837h14.327v-6.836Zm-14.327 15.83h14.327v-7.468h-14.327v7.468Z" fill="#004269"/>
    <path fill-rule="evenodd" clip-rule="evenodd" d="M112.294 31.223h-2.297V10.84h18.626v20.332h-2.34l-.053-1.157h-13.936v1.21Zm-.2-1.41h14.327l.053 1.158h1.949V11.039h-18.226v19.984h1.897v-1.21Zm0-17.302h14.327v6.837h-14.327v-6.836Zm.2 6.637h13.927v-6.437h-13.927v6.437Zm14.127 9.193h-14.327v-7.468h14.327v7.468Zm-.2-7.268h-13.927v7.068h13.927v-7.068Z" fill="#004269"/>
    <path d="m145.752 13.037-1.317-2.314 1.423-.42 1.369 2.314-1.475.42Zm10.535.579v7.047c0 .368-.158.684-.527.947-.316.263-.79.42-1.317.42h-1.79l-.158-1.262h1.474c.475 0 .685-.21.685-.63v-5.365h-3.634v7.205h-1.37v-7.205h-3.582v7.468h-1.58v-8.625h5.057V9.829h1.633v3.787h5.109Zm6.953 17.092h-3.002l-.264-1.578h2.423a1 1 0 0 0 .685-.263c.211-.158.316-.368.316-.578v-3.156h-7.216v6.364h-1.949v-6.364h-6.795v5.628h-1.896v-6.942h8.743v-1.315h1.949v1.314h9.113v5.05a1.5 1.5 0 0 1-.632 1.261c-.421.368-.896.579-1.475.579Zm-15.223-11.15h-1.001l.527-3.575h.948l-.474 3.576Zm4.688-.105-.421-3.418h.948l.527 3.418h-1.054Zm2.16-6.363-1.422-.263 1.264-2.524 1.58.315-1.422 2.472Zm7.374 6.574c-1.264 1.052-2.791 1.893-4.53 2.524l-.632-1.157c1.58-.63 2.95-1.472 4.109-2.524-1.106-1.262-1.896-2.524-2.371-3.84-.421.527-.737.947-1.053 1.21l-1.106-.789a19.33 19.33 0 0 0 1.738-2.471c.579-1.052 1.054-1.946 1.317-2.735l1.685.316c-.21.63-.474 1.21-.79 1.788h6.479V13.3h-1.159c-.263 1.999-1.106 3.787-2.528 5.365.843.683 2.054 1.525 3.687 2.419l-1.159 1.262c-1.316-.736-2.528-1.63-3.687-2.682Zm-.052-2.209c1.053-1.262 1.738-2.682 1.949-4.207h-4.214c.368 1.472 1.106 2.892 2.265 4.207Z" fill="#004269"/>
    <path fill-rule="evenodd" clip-rule="evenodd" d="m145.656 13.273-1.519-2.67 1.813-.536 1.581 2.671-1.875.535Zm10.831.143v1.563l.015-.019a19.108 19.108 0 0 0 1.719-2.443c.58-1.053 1.044-1.93 1.3-2.698l.055-.166 2.083.39-.073.218a10.767 10.767 0 0 1-.647 1.525h6.346V13.5H166.1c-.284 1.904-1.09 3.618-2.413 5.139.824.651 1.974 1.436 3.494 2.268l.224.123-1.438 1.567-.138-.077a20.067 20.067 0 0 1-3.596-2.593c-1.258 1.017-2.76 1.833-4.455 2.448l-.162.059-.822-1.506.209-.083c1.494-.597 2.794-1.383 3.903-2.357-.961-1.122-1.68-2.25-2.152-3.423-.316.397-.589.736-.864.965l-.119.099-1.284-.916v5.45c0 .436-.193.808-.605 1.104-.358.296-.878.462-1.439.462h-1.967l-.208-1.662h1.701c.212 0 .324-.047.384-.103.057-.054.101-.148.101-.328v-5.164h-3.234v7.205h-1.77v-7.205h-3.182v7.468h-1.98v-9.025h5.057V9.629h2.033v3.787h5.109Zm-6.942.2h-5.057v8.625h1.58v-7.468h3.582v7.205h1.37v-7.205h3.634v5.364c0 .42-.21.631-.685.631h-1.474l.158 1.262h1.79c.527 0 1.001-.157 1.317-.42.369-.263.527-.579.527-.947v-7.047h-5.109V9.829h-1.633v3.787Zm9.125 1.235.145-.183.082.218c.481 1.236 1.244 2.429 2.289 3.62-1.113 1.011-2.421 1.827-3.922 2.45l-.187.075.632 1.157c1.739-.63 3.266-1.472 4.53-2.524 1.159 1.052 2.371 1.946 3.687 2.682l1.159-1.262-.18-.1c-1.446-.803-2.55-1.56-3.351-2.194a33.853 33.853 0 0 1-.156-.125l.133-.15c1.342-1.541 2.14-3.28 2.395-5.215h1.159v-1.314h-6.479c.037-.067.072-.134.107-.2a10.853 10.853 0 0 0 .683-1.588l-1.685-.316c-.263.789-.738 1.683-1.317 2.735a19.508 19.508 0 0 1-1.611 2.317c-.042.053-.085.104-.127.155l1.106.788c.269-.224.539-.563.874-.984l.034-.042Zm1.398 16.057-.33-1.978h2.659a.805.805 0 0 0 .544-.204l.01-.01.011-.009c.167-.125.236-.279.236-.418v-2.956h-6.816v6.364h-2.349v-6.364h-6.395v5.628h-2.296v-7.342h8.743v-1.315h2.349v1.315h9.113v5.248c0 .587-.238 1.065-.706 1.418-.451.392-.969.623-1.601.623h-3.172Zm4.647-.779a1.5 1.5 0 0 0 .632-1.262v-5.049h-9.113v-1.314h-1.949v1.314h-8.743v6.942h1.896v-5.627h6.795v6.364h1.949v-6.364h7.216v3.156c0 .21-.105.42-.316.578a1.002 1.002 0 0 1-.685.263h-2.423l.264 1.578h3.002c.579 0 1.054-.21 1.475-.579Zm-16.523-10.37h-1.407l.585-3.976h1.35l-.528 3.976Zm4.336-.105-.47-3.819h1.346l.588 3.819h-1.464Zm2.44-6.341-1.823-.338 1.451-2.898 2.003.4-1.631 2.835Zm-9.216-.276-1.317-2.314 1.423-.42 1.369 2.314-1.475.42Zm1.791 2.946h.948l-.474 3.576h-1.001l.527-3.576Zm5.689.052h-.948l.421 3.418h1.054l-.527-3.418Zm1.475-5.732 1.58.315-1.422 2.472-1.422-.263 1.264-2.524Zm9.429 2.945h-4.214c.016.067.034.133.052.2.368 1.344 1.048 2.642 2.08 3.854.043.051.088.102.133.153l.128-.157c.936-1.166 1.559-2.463 1.79-3.85l.031-.2Zm-.234.2h-3.72c.36 1.285 1.014 2.53 2 3.696.897-1.127 1.494-2.371 1.72-3.696Z" fill="#004269"/>
    <path d="M183.572 28.341v1.63h-1.738v-9.203a22.114 22.114 0 0 1-1.949 2.84l-1.053-.789c2.317-3.26 3.739-6.731 4.213-10.36h-3.213v-1.367h8.955v1.367h-3.951c-.316 1.735-.737 3.366-1.369 4.943h4.688v10.886l-4.583.053Zm2.792-9.677h-2.844v8.31h2.844v-8.31Zm3.582 12.885-1.317-1c1.106-1.156 2.002-2.629 2.686-4.364a17.073 17.073 0 0 0 1.054-5.417h-2.845v-1.367h2.845v-6.837h-2.265v-1.473h13.063v1.473h-2.265v6.89h2.265v1.367h-2.265v10.413h-1.896V20.82h-4.741c-.158 4.575-1.633 8.151-4.319 10.728Zm4.372-12.148h4.74v-6.89h-4.74v6.89Z" fill="#004269"/>
    <path fill-rule="evenodd" clip-rule="evenodd" d="m188.155 28.288-4.583.053v1.63h-1.738v-9.203a22.476 22.476 0 0 1-1.949 2.84l-1.053-.789c2.275-3.2 3.687-6.604 4.186-10.16l.027-.2h-3.213v-1.367h8.955v1.367h-3.951c-.302 1.662-.702 3.228-1.29 4.743a15.36 15.36 0 0 1-.079.2h4.688v10.886Zm-4.395-11.086h4.595v11.284l-4.583.053v1.632h-2.138v-8.677a23.045 23.045 0 0 1-1.593 2.24l-.121.15-1.364-1.022.113-.159c2.252-3.169 3.649-6.533 4.147-10.044h-3.184V10.89h9.355v1.768h-3.984c-.296 1.584-.683 3.086-1.243 4.543Zm6.201 14.61-1.632-1.238.155-.162c1.085-1.134 1.967-2.583 2.644-4.298a16.883 16.883 0 0 0 1.034-5.146h-2.838v-1.767h2.845v-6.437h-2.265v-1.872h13.463v1.872h-2.265v6.49h2.265v1.767h-2.265v10.413h-2.296V21.02h-4.349c-.193 4.525-1.68 8.09-4.373 10.672l-.123.119Zm4.304-10.991h4.741v10.413h1.896V20.82h2.265v-1.368h-2.265v-6.889h2.265V11.09h-13.063v1.473h2.265V19.4h-2.845v1.367h2.845a17.075 17.075 0 0 1-1.054 5.417c-.656 1.663-1.505 3.084-2.549 4.218-.045.05-.091.099-.137.147l1.317 1c2.686-2.578 4.161-6.154 4.319-10.73Zm-10.745 6.153h2.844v-8.31h-2.844v8.31Zm.2-8.11v7.91h2.444v-7.91h-2.444Zm15.338.537h-4.74v-6.89h4.74v6.89Zm-.2-6.69h-4.34v6.49h4.34v-6.49Z" fill="#004269"/>
</svg>
