<?xml version="1.0" encoding="utf-8"?>
<!-- Generator: Adobe Illustrator 25.3.1, SVG Export Plug-In . SVG Version: 6.00 Build 0)  -->
<svg version="1.1" id="Layer_1" xmlns="http://www.w3.org/2000/svg" xmlns:xlink="http://www.w3.org/1999/xlink" x="0px" y="0px"
	 viewBox="0 0 120 32" style="enable-background:new 0 0 120 32;" xml:space="preserve">
<style type="text/css">
	.st0{fill:url(#SVGID_1_);}
	.st1{fill:#F9F6EF;}
</style>
<linearGradient id="SVGID_1_" gradientUnits="userSpaceOnUse" x1="160.8757" y1="106.3459" x2="50.0683" y2="0.5143" gradientTransform="matrix(1 0 0 -1 0 26)">
	<stop  offset="0" style="stop-color:#FFDD52"/>
	<stop  offset="1" style="stop-color:#B672D6"/>
</linearGradient>
<rect class="st0" width="120" height="32"/>
<path class="st1" d="M22.2,21c-0.5,0-0.8-0.1-1.1-0.4s-0.4-0.6-0.4-1.1V9.8h8.5v1.9h-6.3v2.6h5.9v1.9h-5.9v2.8h6.3V21H22.2z
	 M30.6,13h2v1c0.2-0.3,0.5-0.6,0.9-0.8c0.4-0.2,0.7-0.3,1.1-0.3h1c0.9,0,1.5,0.3,2,0.8c0.5,0.5,0.8,1.2,0.8,2.1V21h-2.2v-5.1
	c0-0.3-0.1-0.6-0.3-0.8c-0.2-0.2-0.4-0.3-0.7-0.3h-1c-0.4,0-0.7,0.1-1,0.4c-0.3,0.3-0.5,0.6-0.6,1.1V21h-2.2V13z M43.7,21
	c-0.9,0-1.6-0.2-2.1-0.6c-0.4-0.4-0.7-1.1-0.7-2v-3.5h-1.4V13H41v-2.4h2.1V13h2.1v1.9h-2.1v3.4c0,0.3,0.1,0.5,0.2,0.7
	c0.1,0.1,0.3,0.2,0.5,0.2h1.4V21H43.7z M49.6,21.1c-0.7,0-1.3-0.1-1.8-0.4c-0.5-0.3-0.9-0.6-1.2-1.1c-0.3-0.5-0.4-1-0.4-1.6v-2.1
	c0-0.6,0.1-1.2,0.4-1.7c0.3-0.5,0.7-0.9,1.2-1.1c0.5-0.3,1.1-0.4,1.8-0.4h1.3c1,0,1.8,0.3,2.5,0.9c0.6,0.6,0.9,1.3,0.9,2.3v1.7h-5.9
	v0.4c0,0.4,0.1,0.6,0.3,0.8c0.2,0.2,0.5,0.3,0.9,0.3h1.2c0.4,0,0.7-0.1,0.9-0.2c0.2-0.2,0.4-0.4,0.4-0.7h2.1c0,0.5-0.1,1-0.4,1.4
	c-0.3,0.4-0.7,0.7-1.2,1c-0.5,0.2-1.1,0.3-1.8,0.3H49.6z M52.1,16.2v-0.1c0-0.4-0.1-0.7-0.3-1c-0.2-0.3-0.5-0.4-0.9-0.4h-1.3
	c-0.4,0-0.7,0.1-0.9,0.4c-0.2,0.3-0.4,0.6-0.4,1.1v0H52.1z M55.8,13h2v1c0.2-0.3,0.5-0.6,0.9-0.8c0.4-0.2,0.8-0.3,1.2-0.3h1.1v1.9
	h-1.1c-0.6,0-1,0.2-1.4,0.5c-0.4,0.3-0.5,0.8-0.5,1.3V21h-2.2V13z M77.7,18.4h-4.2l-1,2.6h-2.3l4.4-11.2h1c0.7,0,1.2,0.3,1.4,1
	L81,21h-2.3L77.7,18.4z M74.1,16.5h3l-1.5-4h0L74.1,16.5z M82,13h2v0.9c0.2-0.3,0.5-0.5,0.8-0.7c0.4-0.2,0.7-0.3,1-0.3h1
	c0.6,0,1.2,0.1,1.7,0.4c0.5,0.3,0.9,0.6,1.1,1.1c0.3,0.5,0.4,1,0.4,1.6v1.8c0,0.7-0.1,1.2-0.4,1.8c-0.3,0.5-0.6,0.9-1.1,1.2
	c-0.5,0.3-1,0.4-1.7,0.4h-1c-0.3,0-0.6-0.1-0.9-0.2c-0.3-0.1-0.6-0.3-0.8-0.6v3.8H82V13z M86.6,19.3c0.4,0,0.7-0.1,0.9-0.4
	s0.4-0.7,0.4-1.2v-1.5c0-0.4-0.1-0.8-0.4-1c-0.2-0.3-0.5-0.4-0.9-0.4h-1c-0.3,0-0.6,0.1-0.9,0.4c-0.3,0.2-0.5,0.6-0.6,1v1.6
	c0.1,0.5,0.2,0.8,0.5,1.1c0.3,0.3,0.6,0.4,1,0.4H86.6z M91.6,13h2v0.9c0.2-0.3,0.5-0.5,0.8-0.7c0.4-0.2,0.7-0.3,1-0.3h1
	c0.6,0,1.2,0.1,1.7,0.4c0.5,0.3,0.9,0.6,1.1,1.1c0.3,0.5,0.4,1,0.4,1.6v1.8c0,0.7-0.1,1.2-0.4,1.8c-0.3,0.5-0.6,0.9-1.1,1.2
	c-0.5,0.3-1,0.4-1.7,0.4h-1c-0.3,0-0.6-0.1-0.9-0.2c-0.3-0.1-0.6-0.3-0.8-0.6v3.8h-2.2V13z M96.3,19.3c0.4,0,0.7-0.1,0.9-0.4
	c0.2-0.3,0.4-0.7,0.4-1.2v-1.5c0-0.4-0.1-0.8-0.4-1c-0.2-0.3-0.5-0.4-0.9-0.4h-1c-0.3,0-0.6,0.1-0.9,0.4c-0.3,0.2-0.5,0.6-0.6,1v1.6
	c0.1,0.5,0.2,0.8,0.5,1.1c0.3,0.3,0.6,0.4,1,0.4H96.3z"/>
</svg>
