<?xml version="1.0" encoding="utf-8"?>
<!-- Generator: Adobe Illustrator 25.3.1, SVG Export Plug-In . SVG Version: 6.00 Build 0)  -->
<svg version="1.1" id="Layer_1" xmlns="http://www.w3.org/2000/svg" xmlns:xlink="http://www.w3.org/1999/xlink" x="0px" y="0px"
	 viewBox="0 0 1077.4 270.8" style="enable-background:new 0 0 1077.4 270.8;" xml:space="preserve">
<style type="text/css">
	.st0{fill:#074FCD;}
</style>
<g id="eureka-logo">
	<path class="st0" d="M158.2,0.7h-12.8C65.1,0.7,0,65.7,0,146v120.2h57.8V146.7c0-48.7,39.5-88.2,88.2-88.2h12.2V0.7z"/>
	<path class="st0" d="M96.4,266.2h12.8c80.3,0,145.3-65.1,145.3-145.3V0.7h-57.8v119.5c0,48.7-39.5,88.2-88.2,88.2H96.4V266.2z"/>
	<circle class="st0" cx="127.4" cy="134.6" r="30.8"/>
	<polygon class="st0" points="422.1,115.5 422.1,89.4 422.1,89.4 380.3,89.4 380.3,89.4 380.3,69.5 380.3,69.5 417.3,69.5 
		417.3,43.3 417.3,43.3 380.3,43.3 380.3,27.5 420.7,27.5 420.7,27.5 420.7,1.4 420.7,1.4 351.5,1.4 351.5,1.4 351.5,115.5 
		351.5,115.5 422.1,115.5 	"/>
	<path class="st0" d="M489.9,117.8c22.8,0,44.3-14.6,44.3-39.5V2.1h-27.5l0,0v76.2c0,9-8.7,13.9-16.8,13.9c-8,0-16.8-4.9-16.8-13.9
		V2.1h-27.5v76.2C445.7,103.2,467.1,117.8,489.9,117.8z"/>
	<path class="st0" d="M611.9,1.4c-23.8,0-50.2,0-50.2,0v115.5H590V81.8h5.6l20.6,35.1h31.4v-4.2L622,79c0,0,25.1-4.6,27.6-29.9
		C652.2,22.2,635.7,1.4,611.9,1.4z M610.3,55.7H590V27.5c6.9,0,13.4,0,20.3,0C626.9,27.5,626.2,55.7,610.3,55.7z"/>
	<path class="st0" d="M500.8,155.1c-23.8,0-50.2,0-50.2,0v115.5H479v-35.1h5.6l20.6,35.1h31.4v-4.2l-25.8-33.7
		c0,0,25.1-4.6,27.6-29.9C541.1,175.9,524.6,155.1,500.8,155.1z M499.3,209.4H479v-28.2c6.9,0,13.4,0,20.3,0
		C515.8,181.2,515.1,209.4,499.3,209.4z"/>
	<polygon class="st0" points="743.4,115.5 743.4,89.4 743.4,89.4 702.1,89.4 702.1,89.4 702.1,69.5 702.1,69.5 738.6,69.5 
		738.6,43.3 738.6,43.3 702.1,43.3 702.1,27.5 742,27.5 742,27.5 742,1.4 742,1.4 672.5,1.4 672.5,1.4 672.5,115.5 672.5,115.5 
		743.4,115.5 	"/>
	<path class="st0" d="M933.1,0h-10.3h-10.3l-44.8,110.7v4.1l28.2,0.7l6.9-14.4h42.7l6.9,14.4h26.2v-4.1L933.1,0z M910,75.7
		l13.1-37.8l13.1,37.8H910z"/>
	<path class="st0" d="M614.9,153.9h-20.6l-44.8,112v4.1l28.2,0.7l6.9-14.4h42.7l6.9,14.4h26.2v-4.1L614.9,153.9z M591.9,230.9
		l13.1-37.8l13.1,37.8H591.9z"/>
	<polygon class="st0" points="406.2,270.6 406.2,181.2 433.2,181.2 433.2,155.8 351.5,155.8 351.5,181.2 351.5,181.2 378.5,181.2 
		378.5,270.6 	"/>
	<path class="st0" d="M715.1,154.9h-39v115.9h39C790.5,270.8,790.5,155.6,715.1,154.9z M718,243.5h-13.9v-61.4H718
		C755,182.1,755,243.5,718,243.5z"/>
	<polygon class="st0" points="955.2,270.8 955.2,154.9 926.4,154.9 926.4,154.9 926.4,211.6 870.2,154.9 860.2,154.9 860.2,270.1 
		889.2,270.3 889.2,213.2 945.6,270.8 	"/>
	<path class="st0" d="M1023.7,270.8c21.1,0,42.1-8.8,50.3-32.6c3.4-10.9,3.4-21.8,3.4-33.3h-53.7V230h23.8
		c-5.4,10.9-12.9,13.6-24.5,13.6c-17,0-27.9-12.2-27.9-30.6c0-17,9.7-32.5,27.9-32.5c15.9,0,21,10.7,21,10.7h29.9
		c0,0-2.1-10.7-10.8-21.1c-11.3-13.4-27.4-16.2-39.4-16.2c-29.1,0-57.8,20.3-57.8,59.1C965.3,251,994.5,270.8,1023.7,270.8z"/>
	<path id="K" class="st0" d="M796.7,115.5v-53l35.5,53h32.3v-4.8l-36.9-57.1l29.6-52.3h-34.4l-25.4,46.8V1.4h-29.6v113.5
		L796.7,115.5L796.7,115.5z"/>
	<rect x="799.3" y="154.9" class="st0" width="28" height="115.9"/>
</g>
</svg>
