<?xml version="1.0" encoding="utf-8"?>
<!-- Generator: Adobe Illustrator 26.0.1, SVG Export Plug-In . SVG Version: 6.00 Build 0)  -->
<svg version="1.1" id="Layer_1" xmlns="http://www.w3.org/2000/svg" xmlns:xlink="http://www.w3.org/1999/xlink" x="0px" y="0px"
	 viewBox="0 0 1224 792" style="enable-background:new 0 0 1224 792;" xml:space="preserve">
<style type="text/css">
	.st0{fill:#5E93C6;}
</style>
<g>
	<g>
		<path d="M612.4,394.2h86.4v8c-20.5,3.1-27.6,6.2-27.6,34.3v90c-28.1,17.4-58.8,28.1-98.4,28.1c-97.5,0-159.9-64.6-159.9-155.9
			c0-93.5,71.3-160.8,170.6-160.8c41.4,0,73.5,8.5,101.1,22.3V310h-8.5c-14.7-40.1-45.4-58.8-94-58.8c-86.4,0-147,61-147,145.6
			c0,87.7,59.7,144.3,142.1,144.3c26.7,0,51.7-5.3,73.9-16.5v-87.7c0-28.5-6.2-31.6-38.7-34.7V394.2z"/>
		<path d="M724.1,524.2v-52.5h8.5c17.8,52.1,50.8,69.5,87.7,69.5c36.1,0,74.4-22.7,74.4-64.6c0-27.2-16-42.8-52.5-59.7L796.7,396
			c-38.3-17.8-61.9-42.3-61.9-79.3c0-42.3,35.2-78.8,93.5-78.8c30.7,0,62.8,9.8,82.4,21.8v49.4h-8.5c-14.2-44.5-44.5-57.9-76.2-57.9
			c-42.8,0-71.7,25.8-71.7,63.2c0,31.6,20,48.5,50.8,62.3l45.9,20.9c41,18.7,63.2,40.1,63.2,75.3c0,47.2-41.9,81.5-95.7,81.5
			C784.3,554.5,751.3,543.8,724.1,524.2z"/>
		<path d="M1199.8,549.6v1.3h-27.2l-151.9-158.1h-24v109.6c0,36.5,6.7,38.7,28.1,40.5v8h-76.2v-8c22.3-1.8,28.1-4,28.1-40.5V292.6
			c0-33.4-4.9-40.5-28.1-43.2v-8h96.2c66.4,0,108.7,28.5,108.7,74.4c0,45-40.5,75.7-104.7,77.9L1199.8,549.6z M996.7,379.5h44.1
			c58.3,0,90.8-23.2,90.8-63.2c0-38.7-32.1-61.5-90.4-61.5h-44.5V379.5z"/>
	</g>
	<path class="st0" d="M196.1,342.8V229.7h-12.7v113.1c2.1-0.2,4.2-0.4,6.4-0.4C191.9,342.5,194,342.6,196.1,342.8z"/>
	<path class="st0" d="M105.2,252.7l-10.7,6.9l61.2,95.2c3.3-2.7,6.9-5,10.7-6.9L105.2,252.7z"/>
	<path class="st0" d="M41.1,321.1l-5.3,11.6l102.9,47c1.3-4.1,3.1-8,5.3-11.6L41.1,321.1z"/>
	<path class="st0" d="M24.2,413.4l1.8,12.6l112-16.1c-1.1-4-1.7-8.2-1.8-12.6L24.2,413.4z"/>
	<path class="st0" d="M145.4,426l-85.5,74.1l8.3,9.6l85.5-74.1C150.6,432.8,147.8,429.5,145.4,426z"/>
	<path class="st0" d="M136.8,553.8l12.2,3.6l31.9-108.5c-4.3-0.7-8.4-1.9-12.2-3.6L136.8,553.8z"/>
	<path class="st0" d="M230.5,557.3l12.2-3.6l-31.9-108.5c-3.9,1.7-7.9,2.9-12.2,3.6L230.5,557.3z"/>
	<path class="st0" d="M225.8,435.6l85.5,74.1l8.3-9.6L234.1,426C231.7,429.5,228.9,432.8,225.8,435.6z"/>
	<path class="st0" d="M241.5,409.9l112,16.1l1.8-12.6l-112-16.1C243.2,401.6,242.5,405.8,241.5,409.9z"/>
	<path class="st0" d="M343.6,332.7l-5.3-11.6l-102.9,47c2.2,3.6,4,7.5,5.3,11.6L343.6,332.7z"/>
	<path class="st0" d="M285,259.5l-10.7-6.9l-61.2,95.2c3.8,1.9,7.4,4.2,10.7,6.9L285,259.5z"/>
	
		<rect x="147" y="234.9" transform="matrix(0.9595 -0.2817 0.2817 0.9595 -70.461 54.2367)" class="st0" width="12.7" height="74.4"/>
	
		<rect x="188.9" y="265.8" transform="matrix(0.2817 -0.9595 0.9595 0.2817 -98.7068 412.4336)" class="st0" width="74.4" height="12.7"/>
	
		<rect x="85.8" y="274.3" transform="matrix(0.6549 -0.7557 0.7557 0.6549 -203.5765 177.1786)" class="st0" width="12.7" height="74.4"/>
	
		<rect x="55.6" y="340.4" transform="matrix(0.1423 -0.9898 0.9898 0.1423 -320.6313 385.2301)" class="st0" width="12.7" height="74.4"/>
	
		<rect x="35.1" y="443.3" transform="matrix(0.9096 -0.4154 0.4154 0.9096 -180.2442 70.6761)" class="st0" width="74.4" height="12.7"/>
	
		<rect x="82.8" y="498.2" transform="matrix(0.5406 -0.8413 0.8413 0.5406 -369.3806 332.6997)" class="st0" width="74.4" height="12.7"/>
	<rect x="183.4" y="487.9" class="st0" width="12.7" height="74.4"/>
	
		<rect x="253.2" y="467.4" transform="matrix(0.8413 -0.5406 0.5406 0.8413 -231.6018 220.4148)" class="st0" width="12.7" height="74.4"/>
	
		<rect x="300.8" y="412.4" transform="matrix(0.4154 -0.9096 0.9096 0.4154 -229.4274 542.2493)" class="st0" width="12.7" height="74.4"/>
	
		<rect x="280.3" y="371.3" transform="matrix(0.9898 -0.1423 0.1423 0.9898 -50.5109 49.0309)" class="st0" width="74.4" height="12.7"/>
	
		<rect x="250.1" y="305.1" transform="matrix(0.7557 -0.6549 0.6549 0.7557 -133.8013 264.2127)" class="st0" width="74.4" height="12.7"/>
</g>
</svg>
