<?xml version="1.0" encoding="utf-8"?>
<!-- Generator: Adobe Illustrator 25.2.1, SVG Export Plug-In . SVG Version: 6.00 Build 0)  -->
<svg version="1.1" id="Layer_1" xmlns="http://www.w3.org/2000/svg" xmlns:xlink="http://www.w3.org/1999/xlink" x="0px" y="0px"
	 viewBox="0 0 858.7 482.8" style="enable-background:new 0 0 858.7 482.8;" xml:space="preserve">
<style type="text/css">
	.st0{fill:url(#SVGID_1_);}
	.st1{fill:url(#SVGID_2_);}
	.st2{fill:#313335;}
	.st3{fill:url(#SVGID_3_);}
	.st4{fill:url(#SVGID_4_);}
	.st5{fill:none;}
	.st6{font-family:'Chillax-Regular';}
	.st7{font-size:150.5344px;}
	.st8{letter-spacing:-8;}
	.st9{fill:url(#SVGID_5_);}
	.st10{fill:#FFFFFF;}
</style>
<linearGradient id="SVGID_1_" gradientUnits="userSpaceOnUse" x1="598.407" y1="344.3673" x2="743.2271" y2="199.5472">
	<stop  offset="0" style="stop-color:#AEC6E2"/>
	<stop  offset="1" style="stop-color:#3B4B5D"/>
</linearGradient>
<path class="st0" d="M797.9,285.3c-1.9,6.3-4.5,12.4-7.5,18.2c0,0,0,0,0,0c-0.9,1.8-1.9,3.6-3,5.3c-5.3,7.5-14,12.4-23.9,12.4
	c-8.7,0-16.6-3.8-21.9-9.9c-0.3-0.3-0.5-0.7-0.8-1c-5.3-6.1-13.2-9.9-21.9-9.9c-2.1,0-4.2,0.2-6.2,0.7v60.2
	c-6.6,1.2-13.4,1.9-20.3,1.9c-61,0-110.5-49.5-110.5-110.5s49.5-110.5,110.5-110.5c11.6,0,22.9,1.8,33.4,5.1l-32.9,32.9l19.9,19.9
	l70,70l0,0l2.9,2.9l0,0L797.9,285.3z"/>
<rect x="68.1" y="137.6" class="st5" width="561.2" height="235.6"/>
<text transform="matrix(1 0 0 1 68.0882 244.1927)"><tspan x="0" y="0" class="st2 st6 st7 st8">SHIMA      </tspan><tspan x="0" y="118.3" class="st2 st6 st7 st8">CAPITAL</tspan></text>
</svg>
