<?xml version="1.0" encoding="utf-8"?>
<svg version="1.1" id="Layer_1" x="0px" y="0px" viewBox="0 0 2000 941.05" style="enable-background:new 0 0 2000 941.05;" xmlns="http://www.w3.org/2000/svg">
  <style type="text/css">
	.st0{fill:#091722;}
	.st1{fill:#189BBD;}
	.st2{fill:#DFDFDF;}
</style>
  <g>
    <g>
      <path class="st1" d="M272.93,366.97l37.89-37.89l-19.85-25.81l-25.36-33c-5.72,4.41-13.95,4.01-19.2-1.24 c-5.7-5.7-5.7-14.93,0-20.63c5.7-5.7,14.93-5.7,20.63,0c5.24,5.24,5.65,13.48,1.24,19.2l33,25.36l25.81,19.85l37.89-37.89 c25.34,25.34,25.34,66.71,0,92.04C339.64,392.31,298.27,392.31,272.93,366.97z" style="fill: rgb(25, 155, 189);"/>
      <path class="st1" d="M319.74,520.72c1.29,46.09,18.75,91.76,52.54,127.69l-92.47,92.62l-90.18-90.18L319.74,520.72z" style="fill: rgb(25, 155, 189);"/>
      <path class="st1" d="M646.41,374.27l92.62-92.47l-90.18-90.18L518.72,321.74c-51.25-1.29-103.07,17.61-142.15,56.83 c-11.74,11.74-21.76,24.62-29.92,38.36c5.58,3.01,9.45,8.88,9.45,15.6c0,9.73-7.87,17.61-17.61,17.61c-2.43,0-4.72-0.57-6.87-1.43 c-8.45,23.19-12.45,47.67-11.88,72l19.18-19.04L358.25,521c9.45,9.45,24.91,9.45,34.36,0c9.45-9.45,9.45-24.91,0-34.36 l-19.33-19.33l92.04-92.04l19.33,19.33c9.45,9.45,24.91,9.45,34.36,0c9.45-9.45,9.45-24.91,0-34.36l-19.33-19.33l19.04-19.18 C564.81,323.03,610.48,340.49,646.41,374.27z M398.33,406.77c0,4.29-3.58,7.87-8.02,7.87c-4.29,0-7.87-3.58-7.87-7.87 c0-4.44,3.58-7.87,7.87-7.87C394.75,398.9,398.33,402.33,398.33,406.77z M442.99,374.13c0,6.58-5.3,11.88-11.88,11.88 c-6.58,0-11.88-5.3-11.88-11.88c0-6.58,5.3-11.88,11.88-11.88C437.7,362.25,442.99,367.55,442.99,374.13z" style="fill: rgb(25, 155, 189);"/>
      <path class="st1" d="M352.38,718.98c-7.01,6.87-7.01,18.32,0,25.19c6.87,7.01,18.32,7.01,25.19,0l53.16-53.16 c71.98,34.01,160.63,21.31,220.11-38.17c15.46-15.46,27.77-32.92,36.93-51.53c-11.31-4.01-19.33-14.74-19.33-27.34 c0-15.89,12.88-28.77,28.77-28.77c2.72,0,5.44,0.43,8.02,1.15c6.13-38.19,0.7-77.96-16.2-113.64l46.4-46.4 c7.01-6.87,7.01-18.32,0-25.19c-6.87-7.01-18.32-7.01-25.19,0l-40.02,40.02c-0.02-0.03-0.04-0.06-0.06-0.08l-55.11,55.26 c-7.01,6.87-18.32,6.87-25.34,0c-6.87-7.01-6.87-18.32,0-25.34l-19.33-19.33c-9.45-9.3-24.91-9.3-34.21,0.14 c-9.45,9.3-9.45,24.76,0,34.21l71.86,72c25.34,25.34,25.34,66.71,0,92.04c-25.34,25.34-66.71,25.34-92.04,0l-72-72 c-9.45-9.3-24.76-9.3-34.21,0c-9.45,9.45-9.45,24.91,0,34.36l19.18,19.33c7.01-6.87,18.32-6.87,25.34,0 c6.87,7.01,6.87,18.32,0,25.34l-55.26,55.11c0.03,0.02,0.06,0.04,0.08,0.06L352.38,718.98z M654.57,482.78 c0-4.44,3.58-7.87,7.87-7.87c4.44,0,7.87,3.44,7.87,7.87c0,4.29-3.44,7.87-7.87,7.87C658.15,490.65,654.57,487.08,654.57,482.78z M646.98,541.33c0-2.15,1.72-3.72,3.86-3.72c2,0,3.72,1.57,3.72,3.72c0,2-1.72,3.72-3.72,3.72 C648.7,545.05,646.98,543.33,646.98,541.33z M612.77,642.11c0-2,1.72-3.72,3.72-3.72c2.15,0,3.87,1.72,3.87,3.72 c0,2.15-1.72,3.86-3.87,3.86C614.49,645.97,612.77,644.25,612.77,642.11z M505.98,664.44c0-8.73,7.01-15.75,15.75-15.75 c8.73,0,15.89,7.01,15.89,15.75c0,8.73-7.16,15.89-15.89,15.89C512.99,680.33,505.98,673.17,505.98,664.44z M490.09,616.2 c0-4.44,3.58-8.02,8.02-8.02c4.29,0,7.87,3.58,7.87,8.02c0,4.29-3.58,7.87-7.87,7.87C493.67,624.07,490.09,620.49,490.09,616.2z M444.28,670.31c0-4.29,3.58-7.87,8.02-7.87c4.29,0,7.87,3.58,7.87,7.87c0,4.44-3.58,8.02-7.87,8.02 C447.86,678.32,444.28,674.74,444.28,670.31z" style="fill: rgb(25, 155, 189);"/>
    </g>
    <polygon class="st2" points="1282.6,465.51 1324.17,465.51 1331.34,445.77 1344.72,411.36 1361.88,363.66 1378.56,411.36 &#10;&#9;&#9;1392.18,445.77 1399.59,465.51 1440.92,465.51 1363.65,275.28 1359.87,275.28 &#9;" style="fill: rgb(25, 155, 189);"/>
    <polygon class="st2" points="1063.13,695.59 1104.71,695.59 1111.88,675.85 1125.25,641.45 1142.42,593.75 1159.09,641.45 &#10;&#9;&#9;1172.71,675.85 1180.12,695.59 1221.46,695.59 1144.19,505.37 1140.4,505.37 &#9;" style="fill: rgb(25, 155, 189);"/>
    <path class="st2" d="M856.14,281.95v146.84h58.28v36.71h-94.99V281.95H856.14z" style="fill: rgb(25, 155, 189);"/>
    <path class="st2" d="M944.97,401.58V281.95h36.71v119.38c0,38.51,59.56,38.51,59.56,0V281.95h36.45v119.63 C1077.69,488.87,944.97,488.87,944.97,401.58z" style="fill: rgb(25, 155, 189);"/>
    <path class="st2" d="M1154.97,465.51h-36.71V278.1h9.76l92.68,107.82V282.21h36.97v187.15h-9.76l-92.93-103.72V465.51z" style="fill: rgb(25, 155, 189);"/>
    <path class="st2" d="M1558.03,465.51l-36.97-70.08h-17.71v70.08h-36.71V281.95h72.39c65.46,0,71.88,92.16,17.97,107.82l42.62,75.73 H1558.03z M1503.34,359.74h32.35c24.9,0,24.9-41.07,0-41.07h-32.35V359.74z" style="fill: rgb(25, 155, 189);"/>
    <path class="st2" d="M815.58,645.28c21.05,14.89,43.9,15.4,52.37,14.63c10.78-0.77,20.02-8.47,19-18.48 c-0.77-10.53-8.73-15.15-19-18.74c-28.75-10.53-54.42-25.16-54.42-55.96c0-30.81,21.31-54.43,51.86-55.96 c9.5-0.51,22.08-0.51,45.7,7.7l-4.62,35.43c-20.28-8.22-31.83-7.96-37.48-7.7c-13.09,0.77-19,10.27-18.23,20.54 c1.03,10.27,10.01,14.89,20.54,18.48c28.5,10.53,53.14,26.96,53.14,56.22c0,30.55-21.05,53.91-55.45,55.71 c-10.27,0.77-33.12-0.51-58.02-13.35L815.58,645.28z" style="fill: rgb(25, 155, 189);"/>
    <path class="st2" d="M985.53,695.59V548.75h-45.7V512.3h128.1v36.46h-45.7v146.84H985.53z" style="fill: rgb(25, 155, 189);"/>
    <path class="st2" d="M1265.37,695.59V548.75h-45.7V512.3h128.1v36.46h-45.69v146.84H1265.37z" style="fill: rgb(25, 155, 189);"/>
    <path class="st2" d="M1375.5,695.59V512.04h36.71v183.55H1375.5z" style="fill: rgb(25, 155, 189);"/>
    <path class="st2" d="M1541.85,508.96c126.31,0,126.31,189.2,0,189.2S1415.55,508.96,1541.85,508.96z M1541.85,546.7 c-73.42,0-73.42,113.47,0,113.47C1615.27,660.17,1615.27,546.7,1541.85,546.7z" style="fill: rgb(25, 155, 189);"/>
    <path class="st2" d="M1707.69,695.59h-36.71v-187.4h9.76l92.68,107.82V512.3h36.97v187.15h-9.75l-92.93-103.72V695.59z" style="fill: rgb(25, 155, 189);"/>
  </g>
</svg>