<svg id="Layer_1" data-name="Layer 1" xmlns="http://www.w3.org/2000/svg" viewBox="0 0 1741.24 303.32"><defs><style>.cls-1{fill:#121b28;}.cls-2{fill:#355273;}.cls-3{fill:#f89e1c;}</style></defs><path class="cls-1" d="M606,229.88q-16.41,0-31.3.28l-.47-4.65,14.91-4.1a3.11,3.11,0,0,0,2.42-3q.18-7,.18-18v-91H565l-8.56,24.77-5.22.84-2.42-34.83.65-.75q22.92.38,43.87.38h26q21,0,44.15-.38l.56.75-6.15,34.08-5.21.86-6.06-25.72H619.63v91q0,11,.19,18a3.12,3.12,0,0,0,2.52,3l14.61,4.1.29,4.65Q621.77,229.89,606,229.88Z"/><path class="cls-1" d="M717.94,200.63c0,3.73,0,7.07,0,10s.07,5.61.14,8a3.2,3.2,0,0,0,2.42,3l13.69,3.91.28,4.65q-14.43-.27-30.18-.28-16.3,0-29.06.28l-.46-4.65,12.47-3.46a3,3,0,0,0,2.52-2.87c.06-2.49.11-5.28.14-8.35s0-6.47,0-10.2V126.41q0-4.66,0-8.48t-.14-7a3,3,0,0,0-2.23-3.08l-12.49-3.63-.27-4.75q13,.38,25.79.38c5.85,0,11.51-.13,17-.38s10.5-.37,15-.37q25.14,0,38.1,8.71t12.94,25.85q0,20.21-13.46,31.44t-38,11.22a111.92,111.92,0,0,1-14.34-1Zm0-34.27a54.93,54.93,0,0,0,10.53,1q12.19,0,18.58-7.5t6.38-22.69q0-14.7-6-21.93t-19.1-7.21a72.64,72.64,0,0,0-10.34.74Z"/><path class="cls-1" d="M862.91,108.33A35.3,35.3,0,0,0,850,106a25,25,0,0,0-16.72,5.77,20.1,20.1,0,0,0-4.61,24.31,25.05,25.05,0,0,0,6,7,44.6,44.6,0,0,0,8.51,5.49c3.2,1.62,6.5,3.25,9.93,4.85q5.67,2.72,11.45,5.92A49.15,49.15,0,0,1,874.84,167a33.52,33.52,0,0,1,10.24,25.47q0,18.93-14.25,29.72T833.2,233A107.42,107.42,0,0,1,800,227.65l-.57-.84,4.94-33.53,5.78-.94,7,28.51A35.25,35.25,0,0,0,832,223.92q11.84,0,19-6t7.22-16.06a19.44,19.44,0,0,0-2.23-9.64,25.43,25.43,0,0,0-6.06-7.08,46.41,46.41,0,0,0-8.67-5.54q-4.83-2.43-10.06-4.85c-3.77-1.86-7.57-3.82-11.36-5.87a45.2,45.2,0,0,1-10.15-7.45A34.83,34.83,0,0,1,802.46,151a35.36,35.36,0,0,1-2.79-14.77q0-17.78,13.6-28.32t35.3-10.52q13.78,0,31.39,4.29l.57.84-5.69,30-5.12.85Z"/><path class="cls-1" d="M1052.65,134.69l-5.12.84-7.08-26.73a52.63,52.63,0,0,0-15.92-2.33q-20.6,0-31.87,15.42t-11.27,40.37q0,26.64,13.27,42.47t36.84,15.84a80.94,80.94,0,0,0,27.68-5.3l1.21,5.3a73.18,73.18,0,0,1-42.1,12.66q-30.46,0-49.24-18.35t-18.76-48.33q0-32,20.58-50.58t53.75-18.63a153.74,153.74,0,0,1,33.53,3.82l.55.93Z"/><path class="cls-1" d="M1104.2,188.54,1097.58,206c-1.3,3.41-2.31,6.17-3,8.24a15.92,15.92,0,0,0-1.07,4.79,3.25,3.25,0,0,0,.84,2.43,5.64,5.64,0,0,0,2.61,1.3l8.93,2.62.29,4.83c-9-.18-16.34-.28-22-.28q-8.87,0-20.22.28l-.46-4.65,10-3a9.28,9.28,0,0,0,5.22-3.41,40.17,40.17,0,0,0,3.71-7.22l46.4-113,10.06-1.49L1179,210.69c1.54,4.36,3,7.28,4.23,8.81a10.82,10.82,0,0,0,5.45,3.3l9.13,2.71.27,4.65q-12.57-.27-25.32-.28-16.86,0-32.88.28l-.47-4.65,9.22-2.71a6.5,6.5,0,0,0,2.71-1.39,3.46,3.46,0,0,0,.84-2.52,17.61,17.61,0,0,0-.94-4.89c-.62-2-1.53-4.67-2.7-8l-6.15-17.5Zm20.11-53.48q-1.68,4.84-3.63,10.06l-12.77,33.72H1139l-11.47-33.63Q1125.81,139.92,1124.31,135.06Z"/><path class="cls-1" d="M1249.64,200.63q0,5.6,0,10c0,2.95.08,5.61.14,8a3.21,3.21,0,0,0,2.43,3l13.69,3.91.27,4.65q-14.43-.27-30.17-.28-16.3,0-29.07.28l-.46-4.65,12.48-3.46a3,3,0,0,0,2.52-2.87c.07-2.49.11-5.28.14-8.35s0-6.47,0-10.2V126.41q0-4.66,0-8.48c0-2.55-.07-4.88-.14-7a3,3,0,0,0-2.24-3.08l-12.48-3.63-.28-4.75q13,.38,25.8.38,8.76,0,17-.38t15-.37q25.14,0,38.09,8.71t12.94,25.85q0,20.21-13.46,31.44t-38,11.22a111.8,111.8,0,0,1-14.34-1Zm0-34.27a54.82,54.82,0,0,0,10.52,1q12.19,0,18.59-7.5t6.38-22.69q0-14.7-6.06-21.93t-19.1-7.21a72.4,72.4,0,0,0-10.33.74Z"/><path class="cls-1" d="M1370.12,200.63q0,5.6,0,10.15c0,3.05.08,5.79.14,8.2q.09,2.43,3.17,3.27l11.47,3.26.27,4.65q-13-.27-28.69-.28-16.3,0-29.07.28l-.45-4.65,12.47-3.46a3.09,3.09,0,0,0,2.53-2.87c.06-2.49.1-5.28.13-8.35s0-6.47,0-10.2V126.41q0-4.66,0-8.48t-.13-7a3,3,0,0,0-2.25-3.08l-12.48-3.63-.27-4.75q12.93.38,28.68.38,16.21,0,29.06-.38l.47,4.75-12.48,3.45a2.91,2.91,0,0,0-2.43,2.79q-.09,3.36-.14,7.22t0,8.34Z"/><path class="cls-1" d="M1455,229.88c-10.92,0-21.37.1-31.29.28l-.47-4.65,14.91-4.1a3.1,3.1,0,0,0,2.41-3q.18-7,.19-18v-91h-26.83l-8.56,24.77-5.21.84-2.44-34.83.66-.75q22.92.38,43.87.38h26q21,0,44.17-.38l.55.75-6.15,34.08-5.22.86-6-25.72h-26.91v91q0,11,.18,18a3.12,3.12,0,0,0,2.51,3l14.63,4.1.28,4.65Q1470.77,229.89,1455,229.88Z"/><path class="cls-1" d="M1540.76,188.54,1534.14,206c-1.3,3.41-2.31,6.17-3,8.24A15.92,15.92,0,0,0,1530,219a3.25,3.25,0,0,0,.84,2.43,5.64,5.64,0,0,0,2.61,1.3l8.93,2.62.29,4.83q-13.5-.27-22-.28-8.85,0-20.21.28l-.46-4.65,10-3a9.28,9.28,0,0,0,5.22-3.41,40.17,40.17,0,0,0,3.71-7.22l46.4-113,10.06-1.49,40.14,113.25c1.54,4.36,3,7.28,4.23,8.81a10.82,10.82,0,0,0,5.45,3.3l9.13,2.71.27,4.65q-12.57-.27-25.32-.28-16.86,0-32.88.28l-.47-4.65,9.22-2.71a6.5,6.5,0,0,0,2.71-1.39,3.46,3.46,0,0,0,.84-2.52,17.61,17.61,0,0,0-.94-4.89c-.62-2-1.53-4.67-2.7-8l-6.15-17.5Zm20.11-53.48q-1.68,4.84-3.63,10.06l-12.77,33.72h31.12l-11.47-33.63Q1562.35,139.92,1560.87,135.06Z"/><path class="cls-1" d="M1686.2,126V199.7q0,10.25.18,20.31h36.42l12.76-26.46,5.68-.82-2.32,36.79-.66.64q-23-.27-45-.28h-23.11q-13.87,0-25.71.28l-.45-4.65,11.54-3.46a3.07,3.07,0,0,0,2.52-2.87c.07-2.49.11-5.28.14-8.35s0-6.47,0-10.2V126.41q0-4.66,0-8.48c0-2.55-.07-4.88-.14-7a3,3,0,0,0-2.24-3.08l-11.55-3.63-.27-4.75q12,.38,27.75.38,16.21,0,28.14-.38l.46,4.75-11.55,3.45a2.91,2.91,0,0,0-2.43,2.79q-.09,3.36-.14,9.55T1686.2,126Z"/><polygon class="cls-2" points="35.35 303.32 118.6 155.79 144.13 201.04 86.41 303.32 121.75 303.32 257.58 62.63 292.49 124.48 191.57 303.32 226.91 303.32 266.08 233.92 305.25 303.32 340.6 303.32 283.75 202.6 310.17 155.8 393.42 303.32 428.77 303.32 257.58 0 161.8 169.72 118.6 93.17 0 303.32 35.35 303.32"/><polyline class="cls-3" points="292.49 124.48 191.57 303.32 226.91 303.32 266.08 233.92 283.75 202.6 310.17 155.8 393.42 303.32 428.77 303.32 310.95 94.56"/></svg>