<?xml version="1.0" encoding="UTF-8"?> <svg xmlns="http://www.w3.org/2000/svg" width="220" height="54" viewBox="0 0 220 54" fill="none"><path d="M24.708 0.992432L16.474 9.22151L32.9479 25.6738L24.708 33.8969L8.23994 17.4447L0 25.6738L24.708 50.3492L49.4219 25.6738L24.708 0.992432Z" fill="#000032"></path><path d="M46.2927 0L38.0587 8.22908L55.5264 25.6738L47.2865 33.8969L37.621 43.5497L45.8609 51.7788L55.5264 42.126L63.7605 33.8969L72.0004 25.6738L46.2927 0Z" fill="#FF2700"></path><path d="M55.5264 25.6738V42.1261L45.8609 51.7788L37.621 43.5498L55.5264 25.6738Z" fill="#CC1700"></path><path d="M95.5963 25.4019C94.3378 25.4376 93.0872 25.1935 91.9348 24.6871C90.9673 24.2399 90.1229 23.5648 89.474 22.72C88.832 21.8687 88.3601 20.902 88.0839 19.8726C87.7889 18.7766 87.6417 17.6461 87.6462 16.5112V7.3606H91.7869V16.4994C91.7843 17.1545 91.8517 17.8081 91.988 18.4489C92.1082 19.0399 92.3304 19.6056 92.6446 20.1207C92.9458 20.6296 93.3805 21.0466 93.9017 21.3267C94.423 21.6068 95.011 21.7393 95.6022 21.7098C96.2388 21.7321 96.8691 21.5788 97.4241 21.2667C97.9157 20.9837 98.3238 20.5762 98.6072 20.0852C98.9018 19.5633 99.1153 18.9995 99.2401 18.4134C99.3732 17.7841 99.4406 17.1427 99.4412 16.4994V7.3606H103.582V16.4994C103.589 17.6753 103.432 18.8465 103.115 19.9789C102.826 21.0051 102.342 21.9659 101.689 22.8086C101.036 23.6331 100.191 24.286 99.2283 24.7108C98.0813 25.1989 96.8426 25.4346 95.5963 25.4019Z" fill="#000032"></path><path d="M118.477 25.2662H114.436V17.9764C114.493 17.3154 114.317 16.6555 113.94 16.1096C113.783 15.9188 113.585 15.7664 113.361 15.6639C113.136 15.5615 112.891 15.5119 112.644 15.5189C112.246 15.5272 111.856 15.6262 111.502 15.8084C110.688 16.2229 110.056 16.9236 109.728 17.7755V25.2662H105.688V12.1753H109.32V14.4083C109.665 13.8921 110.105 13.4452 110.615 13.0909C111.143 12.7175 111.731 12.4378 112.354 12.2639C113.052 12.0643 113.775 11.9668 114.501 11.9744C115.224 11.9438 115.942 12.1027 116.584 12.4352C117.088 12.7119 117.507 13.1203 117.796 13.6167C118.074 14.1138 118.262 14.6556 118.352 15.2176C118.446 15.772 118.493 16.3331 118.494 16.8953L118.477 25.2662Z" fill="#000032"></path><path d="M119.813 21.3672C119.798 20.5523 120.056 19.7557 120.547 19.1046C121.074 18.4292 121.77 17.9036 122.564 17.5805C123.498 17.1789 124.505 16.9777 125.522 16.9897C126.055 16.9902 126.587 17.0356 127.113 17.1256C127.582 17.2033 128.041 17.3362 128.479 17.5214V16.9307C128.491 16.6363 128.438 16.3429 128.323 16.0713C128.209 15.7997 128.036 15.5566 127.817 15.3593C127.239 14.9436 126.533 14.7449 125.823 14.7981C125.11 14.7946 124.402 14.9228 123.735 15.1762C123.016 15.4679 122.328 15.8321 121.683 16.2631L120.47 13.6875C121.317 13.1313 122.239 12.6996 123.209 12.4056C124.187 12.1133 125.204 11.9679 126.226 11.9743C128.197 11.9743 129.741 12.441 130.857 13.3744C131.423 13.8777 131.866 14.5033 132.153 15.2035C132.44 15.9038 132.563 16.6601 132.513 17.4151V20.8001C132.484 21.089 132.551 21.3795 132.703 21.6271C132.88 21.8045 133.12 21.9061 133.371 21.9107V25.2661C133.034 25.3311 132.72 25.3842 132.425 25.4138C132.17 25.4466 131.913 25.4643 131.656 25.4669C131.044 25.507 130.436 25.3473 129.923 25.0121C129.526 24.7099 129.26 24.2685 129.177 23.7774L129.106 23.1867C128.545 23.9169 127.822 24.5074 126.995 24.9116C126.197 25.3022 125.321 25.5044 124.433 25.5024C123.612 25.5184 122.799 25.3317 122.067 24.9589C121.394 24.6166 120.822 24.1032 120.411 23.4702C120.013 22.8414 119.805 22.111 119.813 21.3672ZM127.84 21.8398C128.016 21.7023 128.17 21.539 128.296 21.3554C128.405 21.2056 128.467 21.0266 128.473 20.8414V19.7013C128.11 19.5639 127.733 19.4629 127.349 19.4C126.971 19.3277 126.587 19.2901 126.202 19.2877C125.554 19.2638 124.913 19.4279 124.356 19.7603C124.136 19.8869 123.952 20.0693 123.824 20.2891C123.697 20.509 123.629 20.7585 123.629 21.0127C123.627 21.3006 123.716 21.5818 123.883 21.8161C124.06 22.0684 124.298 22.2716 124.575 22.4069C124.905 22.5581 125.265 22.6328 125.628 22.6255C126.032 22.6191 126.432 22.5452 126.811 22.4069C127.184 22.2864 127.533 22.1003 127.84 21.8575V21.8398Z" fill="#000032"></path><path d="M147.71 25.2662H143.67V17.9764C143.728 17.3161 143.554 16.6562 143.179 16.1096C143.021 15.9187 142.822 15.7662 142.596 15.6639C142.371 15.5615 142.125 15.5119 141.877 15.5189C141.482 15.5281 141.093 15.6271 140.742 15.8084C140.347 16.0104 139.992 16.2826 139.695 16.6118C139.381 16.9549 139.138 17.3564 138.979 17.7933V25.2662H134.939V12.1753H138.571V14.4083C138.907 13.8948 139.337 13.4481 139.837 13.0909C140.364 12.7175 140.953 12.4378 141.576 12.2639C142.274 12.0643 142.997 11.9668 143.723 11.9744C144.445 11.9438 145.163 12.1027 145.805 12.4352C146.298 12.7161 146.707 13.1242 146.988 13.6167C147.266 14.1138 147.454 14.6556 147.544 15.2176C147.635 15.7722 147.681 16.3333 147.68 16.8953L147.71 25.2662Z" fill="#000032"></path><path d="M149.886 10.5154V6.85864H153.921V10.5154H149.886ZM149.886 25.284V12.0277H153.921V25.2663L149.886 25.284Z" fill="#000032"></path><path d="M177.15 25.2663H173.11V17.9765C173.161 17.3222 172.992 16.6695 172.631 16.1216C172.485 15.9336 172.297 15.7824 172.083 15.6798C171.868 15.5772 171.632 15.5262 171.394 15.5308C170.804 15.5498 170.24 15.7781 169.803 16.1747C169.279 16.606 168.892 17.181 168.691 17.8288V25.2663H164.657V17.9765C164.709 17.3176 164.538 16.6603 164.172 16.1097C164.026 15.9222 163.838 15.7711 163.624 15.6686C163.409 15.5661 163.173 15.5148 162.936 15.519C162.357 15.5421 161.805 15.7656 161.374 16.1511C160.847 16.5724 160.453 17.1364 160.238 17.7756V25.2663H156.198V12.1754H159.83V14.4084C160.314 13.6385 160.999 13.0154 161.812 12.6066C162.721 12.17 163.72 11.9535 164.728 11.9745C165.633 11.9156 166.53 12.184 167.254 12.7307C167.812 13.1854 168.21 13.8063 168.389 14.5029C168.879 13.7094 169.574 13.0624 170.401 12.6302C171.269 12.1788 172.237 11.9513 173.216 11.9686C173.926 11.9377 174.63 12.0968 175.257 12.4294C175.751 12.7094 176.16 13.1177 176.44 13.6109C176.71 14.1114 176.898 14.6519 176.996 15.2118C177.094 15.7657 177.144 16.3271 177.144 16.8895L177.15 25.2663Z" fill="#000032"></path><path d="M185.609 25.5144C184.577 25.5333 183.552 25.3486 182.592 24.9709C181.753 24.6347 180.994 24.1277 180.362 23.4822C179.762 22.8613 179.293 22.126 178.984 21.3201C178.361 19.6614 178.361 17.8334 178.984 16.1747C179.299 15.3496 179.782 14.5989 180.403 13.9704C181.025 13.3419 181.77 12.8493 182.592 12.5239C183.551 12.1442 184.577 11.9575 185.609 11.9745C186.637 11.9551 187.659 12.1419 188.614 12.5239C189.45 12.8608 190.208 13.3677 190.838 14.0126C191.444 14.6346 191.922 15.3691 192.246 16.1747C192.885 17.8305 192.885 19.6643 192.246 21.3201C191.927 22.1243 191.455 22.8587 190.856 23.4822C190.224 24.1257 189.467 24.6325 188.631 24.9709C187.671 25.3532 186.643 25.5381 185.609 25.5144ZM182.651 18.7563C182.637 19.3698 182.771 19.9777 183.041 20.5285C183.277 21.0099 183.639 21.4183 184.088 21.71C184.543 21.9909 185.069 22.1345 185.603 22.1235C186.134 22.1307 186.657 21.9829 187.105 21.6982C187.557 21.4073 187.921 20.9988 188.158 20.5167C188.421 19.9636 188.551 19.3566 188.537 18.7445C188.549 18.1324 188.42 17.5258 188.158 16.9722C187.925 16.4875 187.56 16.0781 187.105 15.7907C186.649 15.5204 186.128 15.3777 185.597 15.3777C185.066 15.3777 184.545 15.5204 184.088 15.7907C183.639 16.0825 183.277 16.4909 183.041 16.9722C182.77 17.5269 182.638 18.1392 182.657 18.7563H182.651Z" fill="#000032"></path><path d="M194.068 20.558V12.1753H198.108V19.6541C198.066 20.2983 198.234 20.9387 198.587 21.4795C198.744 21.6853 198.949 21.8502 199.184 21.9602C199.419 22.0702 199.676 22.1221 199.935 22.1116C200.296 22.1137 200.655 22.0517 200.994 21.9285C201.356 21.7919 201.691 21.5918 201.982 21.3377C202.325 21.0287 202.615 20.6655 202.84 20.2626V12.1753H206.88V20.7943C206.851 21.085 206.918 21.3773 207.069 21.6272C207.247 21.8046 207.486 21.9062 207.738 21.9108V25.2662C207.365 25.3312 207.04 25.3843 206.762 25.4139C206.517 25.4474 206.27 25.4651 206.022 25.4671C205.427 25.4948 204.837 25.3425 204.33 25.0299C204.122 24.8887 203.944 24.7062 203.809 24.4939C203.674 24.2816 203.584 24.0438 203.544 23.7952L203.485 22.9977C202.921 23.8288 202.139 24.4889 201.225 24.9058C200.274 25.3169 199.245 25.5183 198.208 25.4966C197.632 25.5347 197.055 25.44 196.522 25.2197C195.989 24.9995 195.513 24.6596 195.132 24.2265C194.422 23.3994 194.068 22.1648 194.068 20.558Z" fill="#000032"></path><path d="M214.599 25.5143C213.472 25.5159 212.352 25.3282 211.287 24.959C210.267 24.6236 209.335 24.0645 208.56 23.3226L209.95 20.7765C210.679 21.3199 211.474 21.7685 212.316 22.1116C213.001 22.3971 213.733 22.5514 214.475 22.5664C214.893 22.5894 215.31 22.5082 215.688 22.3301C215.823 22.2607 215.935 22.1544 216.011 22.0236C216.088 21.8928 216.125 21.743 216.12 21.5917C216.125 21.4804 216.105 21.3693 216.061 21.267C216.017 21.1646 215.95 21.0736 215.865 21.001C215.635 20.8272 215.374 20.697 215.096 20.617C214.747 20.4988 214.327 20.3748 213.819 20.2448C212.959 19.9701 212.116 19.6467 211.293 19.276C210.697 19.0145 210.177 18.6084 209.778 18.0945C209.423 17.5736 209.247 16.9518 209.276 16.3223C209.259 15.5062 209.492 14.7045 209.944 14.0243C210.421 13.3459 211.082 12.8173 211.849 12.5001C212.785 12.1126 213.793 11.9254 214.806 11.9508C215.711 11.9498 216.61 12.0954 217.468 12.382C218.372 12.6859 219.202 13.1748 219.905 13.8175L218.332 16.3636C217.702 15.915 217.026 15.5347 216.315 15.2294C215.771 15.0029 215.189 14.8826 214.599 14.8749C214.334 14.873 214.069 14.9068 213.813 14.9754C213.587 15.0257 213.382 15.1406 213.221 15.3062C213.08 15.4703 213.004 15.6806 213.008 15.8969C213 16.114 213.076 16.3257 213.221 16.4877C213.417 16.6638 213.649 16.7948 213.901 16.8717L215.084 17.2497C216.014 17.507 216.925 17.8268 217.811 18.2067C218.444 18.458 219.004 18.8643 219.438 19.3882C219.825 19.9313 220.017 20.5892 219.982 21.255C220.008 21.851 219.889 22.4444 219.637 22.9852C219.385 23.526 219.006 23.9983 218.533 24.3623C217.387 25.1735 216.003 25.579 214.599 25.5143Z" fill="#000032"></path><path d="M87.1613 39.5268C87.1712 38.4372 87.3714 37.3577 87.7528 36.3368C88.13 35.2887 88.6886 34.3149 89.4031 33.4598C90.1379 32.5889 91.0465 31.8807 92.0709 31.3804C93.1927 30.8448 94.4242 30.5778 95.6674 30.6006C97.1102 30.558 98.5337 30.9401 99.7607 31.6994C100.846 32.3819 101.719 33.3538 102.281 34.5054L101.222 35.0962C100.85 34.3385 100.322 33.6681 99.672 33.129C99.0847 32.6568 98.412 32.3018 97.6904 32.0834C97.002 31.8737 96.2865 31.7662 95.5668 31.7644C94.5207 31.7473 93.4858 31.9823 92.55 32.4497C91.6766 32.8873 90.9063 33.5055 90.2904 34.2632C89.6864 35.0159 89.2217 35.8701 88.9181 36.7857C88.6089 37.687 88.451 38.6331 88.4508 39.5859C88.4457 40.6155 88.6323 41.6371 89.0009 42.5987C89.3586 43.5267 89.8772 44.3846 90.5329 45.1329C91.1668 45.8663 91.9385 46.4684 92.8044 46.9052C93.6774 47.3443 94.6426 47.569 95.6201 47.5609C96.3703 47.556 97.115 47.4324 97.8265 47.1946C98.5993 46.9484 99.3237 46.5706 99.9678 46.0781C100.644 45.538 101.188 44.8511 101.559 44.0696L102.665 44.6013C102.283 45.49 101.685 46.2697 100.926 46.8697C100.158 47.4874 99.2869 47.9653 98.3529 48.2816C97.4508 48.5931 96.5036 48.7548 95.5491 48.7601C94.3817 48.7697 93.2292 48.4982 92.1892 47.9685C91.1691 47.4461 90.264 46.725 89.5274 45.8477C88.0209 44.0853 87.1833 41.8498 87.1613 39.5327V39.5268Z" fill="#000032"></path><path d="M103.848 44.8611C103.833 44.1152 104.085 43.3885 104.558 42.8112C105.077 42.1989 105.745 41.7309 106.498 41.4525C107.411 41.1116 108.381 40.9452 109.355 40.9622C110.057 40.9645 110.757 41.0237 111.449 41.1394C112.111 41.2424 112.762 41.4025 113.395 41.6179V40.3892C113.421 39.8624 113.342 39.3358 113.162 38.8399C112.982 38.344 112.706 37.8887 112.348 37.5004C111.964 37.1289 111.506 36.8415 111.004 36.6564C110.501 36.4713 109.966 36.3926 109.432 36.4253C108.731 36.435 108.038 36.5711 107.385 36.827C106.618 37.1346 105.889 37.5312 105.215 38.0085L104.682 37.0987C105.459 36.571 106.295 36.1349 107.173 35.7991C107.929 35.5124 108.73 35.3624 109.539 35.356C110.22 35.3202 110.901 35.4244 111.54 35.6622C112.179 35.9 112.762 36.2662 113.253 36.7384C113.72 37.2442 114.081 37.8382 114.315 38.4855C114.549 39.1328 114.65 39.8202 114.614 40.5073V47.0055C114.602 47.1678 114.652 47.3287 114.756 47.4545C114.865 47.5658 115.014 47.6295 115.17 47.6317V48.6655C115.044 48.6729 114.917 48.6729 114.791 48.6655H114.537C114.246 48.6326 113.979 48.4886 113.792 48.2638C113.622 48.0552 113.521 47.7994 113.502 47.5313V46.4856C112.881 47.2572 112.081 47.8656 111.171 48.2579C110.25 48.6644 109.256 48.8775 108.249 48.8841C107.471 48.896 106.702 48.7132 106.013 48.3524C105.37 48.0216 104.829 47.5236 104.446 46.911C104.056 46.2978 103.849 45.5871 103.848 44.8611ZM112.887 45.9422C113.041 45.7497 113.168 45.537 113.265 45.3101C113.346 45.1379 113.391 44.9508 113.395 44.7607V42.5985C112.782 42.3654 112.148 42.1894 111.503 42.0728C110.835 41.9536 110.158 41.8943 109.479 41.8956C108.362 41.8458 107.254 42.1164 106.285 42.6753C105.911 42.885 105.599 43.1914 105.384 43.5624C105.168 43.9334 105.057 44.3554 105.061 44.7843C105.057 45.3249 105.206 45.8555 105.493 46.3143C105.782 46.7886 106.189 47.1795 106.676 47.4486C107.221 47.7386 107.832 47.885 108.45 47.8739C109.351 47.8823 110.242 47.697 111.065 47.3304C111.787 47.0421 112.417 46.562 112.887 45.9422Z" fill="#000032"></path><path d="M124.404 48.8842C123.331 48.8972 122.279 48.5863 121.387 47.9922C120.53 47.4249 119.803 46.6843 119.251 45.8183V54.0001H117.991V35.5393H119.175V38.1799C119.719 37.3373 120.454 36.635 121.322 36.13C122.175 35.6144 123.152 35.3407 124.149 35.3384C125.026 35.3344 125.891 35.5368 126.675 35.9292C127.429 36.3054 128.102 36.8252 128.657 37.4592C129.216 38.1031 129.66 38.8385 129.97 39.6332C130.279 40.4362 130.438 41.2893 130.437 42.1497C130.437 43.3074 130.17 44.4496 129.656 45.4874C129.18 46.4817 128.452 47.3348 127.545 47.9627C126.619 48.5877 125.521 48.9098 124.404 48.8842ZM124.102 47.7441C124.824 47.7572 125.539 47.5951 126.184 47.2715C126.796 46.9591 127.336 46.5225 127.769 45.9896C128.208 45.4498 128.551 44.8382 128.781 44.1819C129.016 43.522 129.136 42.8266 129.136 42.1261C129.144 40.6655 128.599 39.256 127.61 38.1799C127.135 37.6667 126.57 37.246 125.942 36.9394C125.3 36.6282 124.596 36.4686 123.883 36.4727C123.388 36.481 122.897 36.575 122.434 36.7503C121.91 36.938 121.415 37.2007 120.967 37.5301C120.525 37.8454 120.137 38.2305 119.819 38.6702C119.532 39.059 119.341 39.5106 119.263 39.9876V44.3059C119.565 44.9532 119.964 45.5508 120.446 46.0782C120.919 46.5726 121.481 46.9735 122.103 47.2597C122.723 47.5711 123.407 47.7368 124.102 47.7441Z" fill="#000032"></path><path d="M132.939 32.5441V31.0554H134.199V32.5441H132.939ZM132.939 48.6301V35.5155H134.199V48.6301H132.939Z" fill="#000032"></path><path d="M143.516 48.0984C143.433 48.1339 143.261 48.2166 143.013 48.3524C142.705 48.5073 142.382 48.6301 142.049 48.7187C141.63 48.8312 141.199 48.8868 140.765 48.8841C140.325 48.8854 139.889 48.7927 139.488 48.6124C139.102 48.4431 138.773 48.1661 138.541 47.8149C138.296 47.4289 138.172 46.9782 138.186 46.5211V36.573H136.347V35.5392H138.186V31.0554H139.452V35.5392H142.504V36.573H139.452V46.2258C139.452 46.4373 139.5 46.6461 139.591 46.8372C139.682 47.0282 139.814 47.1967 139.979 47.3304C140.297 47.5747 140.689 47.7038 141.091 47.6967C141.56 47.7068 142.026 47.6162 142.457 47.4309C142.692 47.3334 142.919 47.2188 143.137 47.0882L143.516 48.0984Z" fill="#000032"></path><path d="M144.149 44.8612C144.132 44.116 144.381 43.3891 144.853 42.8113C145.374 42.199 146.044 41.7311 146.799 41.4526C147.71 41.1105 148.677 40.9441 149.65 40.9623C150.352 40.9645 151.052 41.0238 151.744 41.1395C152.405 41.2417 153.057 41.4018 153.69 41.618V40.3892C153.716 39.8625 153.637 39.3359 153.457 38.84C153.277 38.3441 153 37.8888 152.643 37.5005C152.261 37.132 151.807 36.8464 151.309 36.6613C150.811 36.4763 150.281 36.396 149.751 36.4253C149.051 36.4345 148.36 36.5706 147.71 36.827C146.94 37.1346 146.21 37.5311 145.533 38.0085L145.006 37.0988C145.781 36.57 146.615 36.1339 147.491 35.7991C148.247 35.5131 149.048 35.3631 149.857 35.3561C150.537 35.3207 151.217 35.4252 151.855 35.663C152.493 35.9007 153.075 36.2668 153.566 36.7384C154.041 37.237 154.412 37.8261 154.654 38.4706C154.897 39.115 155.008 39.8017 154.98 40.4897V46.9879C154.967 47.0663 154.973 47.1465 154.995 47.2228C155.017 47.299 155.056 47.3694 155.108 47.4291C155.161 47.4888 155.226 47.5363 155.298 47.5683C155.371 47.6002 155.45 47.6158 155.53 47.614V48.6478C155.404 48.6554 155.277 48.6554 155.151 48.6478H154.903C154.612 48.6149 154.345 48.471 154.157 48.2461C153.985 48.039 153.884 47.7824 153.868 47.5136V46.4857C153.245 47.2574 152.443 47.8657 151.531 48.258C150.589 48.6761 149.569 48.8914 148.538 48.8901C147.76 48.9008 146.992 48.718 146.302 48.3584C145.661 48.0275 145.121 47.5294 144.74 46.917C144.352 46.3015 144.147 45.5886 144.149 44.8612ZM153.205 45.9422C153.357 45.7481 153.484 45.5358 153.584 45.3101C153.66 45.1368 153.703 44.9502 153.708 44.7607V42.5986C153.095 42.3648 152.461 42.1888 151.815 42.0729C151.149 41.954 150.474 41.8947 149.798 41.8956C148.68 41.8459 147.572 42.1165 146.604 42.6754C146.227 42.8826 145.914 43.1884 145.698 43.56C145.482 43.9316 145.372 44.3549 145.379 44.7844C145.376 45.324 145.523 45.8539 145.805 46.3144C146.093 46.7894 146.501 47.1805 146.988 47.4486C147.534 47.7394 148.144 47.8859 148.763 47.874C149.663 47.8811 150.554 47.6958 151.377 47.3305C152.101 47.0412 152.733 46.5615 153.205 45.9422Z" fill="#000032"></path><path d="M158.387 31.0554H159.676V46.1253C159.65 46.3489 159.67 46.5754 159.735 46.7909C159.8 47.0064 159.909 47.2062 160.055 47.3777C160.325 47.6145 160.677 47.7373 161.037 47.7203C161.317 47.7206 161.596 47.6949 161.871 47.6435C162.13 47.6042 162.384 47.5369 162.628 47.4427L162.882 48.4765C162.536 48.5933 162.182 48.6861 161.824 48.7541C161.466 48.831 161.101 48.8745 160.735 48.8841C160.422 48.8981 160.109 48.8477 159.816 48.7359C159.523 48.6241 159.256 48.4534 159.031 48.2343C158.812 48.0031 158.642 47.7301 158.532 47.4316C158.421 47.1332 158.372 46.8154 158.387 46.4975V31.0554Z" fill="#000032"></path></svg> 