<?xml version="1.0" encoding="UTF-8"?><svg id="Layer_1" xmlns="http://www.w3.org/2000/svg" viewBox="0 0 483.01 120.18"><defs><style>.cls-1{fill:#dbfa7d;}</style></defs><path d="M156,29.7v-5.7h56.15v14.83l-36.45,39.31h37.48v15h-59.18v-13.69l36.67-40.88h-25.86c-1.16,.05-2.33-.14-3.41-.57-1.1-.46-2.08-1.14-2.9-2-1.65-1.68-2.55-3.95-2.5-6.3Z"/><path d="M235.54,58.83c.14,13.49,4.68,20.31,13.54,20.31s13.27-7.14,13.4-20.84c0-13.49-4.43-20.16-13.27-20.16s-13.67,6.93-13.67,20.69Zm45,0c0,23.84-10.53,35.9-31.35,35.9s-31.19-12.06-31.19-35.9,10.41-36,31.23-36,31.33,11.9,31.33,36h-.02Z"/><path d="M304.26,9.82V49.58l22.05-25.47h21.69l-24.65,26.55,24.9,42.61h-21.61l-12.64-23.58c-2.3-4.06-3.56-6.09-6.48-6.09-1.84,.04-3.3,1.56-3.26,3.4,0,0,0,0,0,0v26.1h-17.85V1h9.28c2.29,.06,4.46,1.01,6.05,2.65,1.6,1.65,2.51,3.87,2.52,6.17Z"/><path d="M363.87,105.44c9.47,0,12.84-4.7,10.12-13.85l-23.35-67.51h19.58l13.61,47.92,11.93-41.78c1.05-4.05,3.77-6.15,8.18-6.15h12.06l-27.12,80.83c-4.15,11.36-8.29,15.27-22.57,15.27-4.4,0-6.74-.13-7.26-.51v-14.2l4.82-.02Z"/><path d="M438,58.83c.13,13.49,4.69,20.31,13.53,20.31s13.26-7.14,13.39-20.84c0-13.49-4.42-20.16-13.27-20.16s-13.65,6.93-13.65,20.69Zm45,0c0,23.84-10.55,35.9-31.36,35.9s-31.22-12.06-31.22-35.9,10.41-36,31.22-36,31.36,11.9,31.36,36Z"/><path class="cls-1" d="M73.19,0V13.11h18.62L0,101.5v13.11H105.89c4.83,0,8.74-3.91,8.74-8.74V57.19h-13.11v44.31H19L101.59,21.93v19.58h13.12V8.33C114.71,3.73,110.98,0,106.38,0c-.01,0-.03,0-.04,0h-33.15Z"/><path class="cls-1" d="M13.16,13.11H57.49V0H8.79C3.96-.03,.03,3.86,0,8.69c0,.02,0,.03,0,.05V61.17H13.16V13.11Z"/></svg>